/* XPM */
static char *_3aecbab79a64d72f74a0681d79c24692QbPiKoIcjZQ6o82[] = {
/* columns rows colors chars-per-pixel */
"64 64 2 1 ",
"  c black",
". c white",
/* pixels */
"....    ....    ....    ....    ....    ....    ....    ....    ",
"....    ....    ....    ....    ....    ....    ....    ....    ",
"....    ....    ....    ....    ....    ....    ....    ....    ",
"....    ....    ....    ....    ....    ....    ....    ....    ",
"    ....    ....    ....    ....    ....    ....    ....    ....",
"    ....    ....    ....    ....    ....    ....    ....    ....",
"    ....    ....    ....    ....    ....    ....    ....    ....",
"    ....    ....    ....    ....    ....    ....    ....    ....",
"....    ....    ....    ....    ....    ....    ....    ....    ",
"....    ....    ....    ....    ....    ....    ....    ....    ",
"....    ....    ....    ....    ....    ....    ....    ....    ",
"....    ....    ....    ....    ....    ....    ....    ....    ",
"    ....    ....    ....    ....    ....    ....    ....    ....",
"    ....    ....    ....    ....    ....    ....    ....    ....",
"    ....    ....    ....    ....    ....    ....    ....    ....",
"    ....    ....    ....    ....    ....    ....    ....    ....",
"....    ....    ....    ....    ....    ....    ....    ....    ",
"....    ....    ....    ....    ....    ....    ....    ....    ",
"....    ....    ....    ....    ....    ....    ....    ....    ",
"....    ....    ....    ....    ....    ....    ....    ....    ",
"    ....    ....    ....    ....    ....    ....    ....    ....",
"    ....    ....    ....    ....    ....    ....    ....    ....",
"    ....    ....    ....    ....    ....    ....    ....    ....",
"    ....    ....    ....    ....    ....    ....    ....    ....",
"....    ....    ....    ....    ....    ....    ....    ....    ",
"....    ....    ....    ....    ....    ....    ....    ....    ",
"....    ....    ....    ....    ....    ....    ....    ....    ",
"....    ....    ....    ....    ....    ....    ....    ....    ",
"    ....    ....    ....    ....    ....    ....    ....    ....",
"    ....    ....    ....    ....    ....    ....    ....    ....",
"    ....    ....    ....    ....    ....    ....    ....    ....",
"    ....    ....    ....    ....    ....    ....    ....    ....",
"....    ....    ....    ....    ....    ....    ....    ....    ",
"....    ....    ....    ....    ....    ....    ....    ....    ",
"....    ....    ....    ....    ....    ....    ....    ....    ",
"....    ....    ....    ....    ....    ....    ....    ....    ",
"    ....    ....    ....    ....    ....    ....    ....    ....",
"    ....    ....    ....    ....    ....    ....    ....    ....",
"    ....    ....    ....    ....    ....    ....    ....    ....",
"    ....    ....    ....    ....    ....    ....    ....    ....",
"....    ....    ....    ....    ....    ....    ....    ....    ",
"....    ....    ....    ....    ....    ....    ....    ....    ",
"....    ....    ....    ....    ....    ....    ....    ....    ",
"....    ....    ....    ....    ....    ....    ....    ....    ",
"    ....    ....    ....    ....    ....    ....    ....    ....",
"    ....    ....    ....    ....    ....    ....    ....    ....",
"    ....    ....    ....    ....    ....    ....    ....    ....",
"    ....    ....    ....    ....    ....    ....    ....    ....",
"....    ....    ....    ....    ....    ....    ....    ....    ",
"....    ....    ....    ....    ....    ....    ....    ....    ",
"....    ....    ....    ....    ....    ....    ....    ....    ",
"....    ....    ....    ....    ....    ....    ....    ....    ",
"    ....    ....    ....    ....    ....    ....    ....    ....",
"    ....    ....    ....    ....    ....    ....    ....    ....",
"    ....    ....    ....    ....    ....    ....    ....    ....",
"    ....    ....    ....    ....    ....    ....    ....    ....",
"....    ....    ....    ....    ....    ....    ....    ....    ",
"....    ....    ....    ....    ....    ....    ....    ....    ",
"....    ....    ....    ....    ....    ....    ....    ....    ",
"....    ....    ....    ....    ....    ....    ....    ....    ",
"    ....    ....    ....    ....    ....    ....    ....    ....",
"    ....    ....    ....    ....    ....    ....    ....    ....",
"    ....    ....    ....    ....    ....    ....    ....    ....",
"    ....    ....    ....    ....    ....    ....    ....    ...."
};
