/* XPM */
static char *_888ec4375374f67d56f203f621c04ef5MHSJbFnFbzHuMQa[] = {
/* columns rows colors chars-per-pixel */
"64 64 249 2 ",
"   c #3D8E03",
".  c #3C8F03",
"X  c #3C8E05",
"o  c #3D8E05",
"O  c #3E8F04",
"+  c #3D8D06",
"@  c #3F8D06",
"#  c #3D8F06",
"$  c #3E8F06",
"%  c #3E8E07",
"&  c #3F8C08",
"*  c #3F8F08",
"=  c #3E8E09",
"-  c #3F8C0A",
";  c #3E8E0B",
":  c #3B9000",
">  c #3B9001",
",  c #3A9200",
"<  c #3A9300",
"1  c #3D9000",
"2  c #3C9100",
"3  c #3D9002",
"4  c #3C9102",
"5  c #3D9004",
"6  c #3F9005",
"7  c #3E9105",
"8  c #3E9007",
"9  c #3F9007",
"0  c #408E06",
"q  c #408E07",
"w  c #408B0A",
"e  c #438B0B",
"r  c #408C08",
"t  c #408D09",
"y  c #418D09",
"u  c #418F08",
"i  c #418C0B",
"p  c #408D0B",
"a  c #418E0A",
"s  c #408B0C",
"d  c #408A0D",
"f  c #428A0D",
"g  c #438B0D",
"h  c #42890F",
"j  c #418B0E",
"k  c #408A0F",
"l  c #438B0E",
"z  c #418C0D",
"x  c #408D0D",
"c  c #428D0C",
"v  c #418E0C",
"b  c #428D0E",
"n  c #428C0F",
"m  c #448716",
"M  c #418B10",
"N  c #438A10",
"B  c #438813",
"V  c #428913",
"C  c #438A12",
"Z  c #448A10",
"A  c #448912",
"S  c #448B13",
"D  c #458814",
"F  c #448914",
"G  c #458815",
"H  c #448915",
"J  c #458817",
"K  c #458A16",
"L  c #478719",
"P  c #47861B",
"I  c #67BF2B",
"U  c #69BE2B",
"Y  c #6ABD2D",
"T  c #69BE2D",
"R  c #6ABF2C",
"E  c #6BBF2C",
"W  c #6ABD2F",
"Q  c #6BBE2E",
"!  c #6ABF2E",
"~  c #6CBF2F",
"^  c #6BBC31",
"/  c #6ABD31",
"(  c #6BBE30",
")  c #6ABF30",
"_  c #6ABC33",
"`  c #6BBC33",
"'  c #6ABE32",
"]  c #6BBE32",
"[  c #6CBD30",
"{  c #6CBF31",
"}  c #6CBD32",
"|  c #6FBD33",
" . c #6DBE33",
".. c #6CBF33",
"X. c #6BBB34",
"o. c #6DBB34",
"O. c #6DBA36",
"+. c #6EBB37",
"@. c #6FBB37",
"#. c #6BBD34",
"$. c #6CBD34",
"%. c #6CBC35",
"&. c #6EBC34",
"*. c #6EBC35",
"=. c #6CBE35",
"-. c #6DBE35",
";. c #6DBD36",
":. c #6CBC37",
">. c #6FBD36",
",. c #6EB938",
"<. c #6DBA38",
"1. c #6FBA39",
"2. c #6EBB39",
"3. c #6EB93A",
"4. c #6EB83B",
"5. c #6DBA3A",
"6. c #6FBA3B",
"7. c #6EBB3B",
"8. c #6DBD38",
"9. c #6CBC39",
"0. c #6FBC38",
"q. c #6FBC3A",
"w. c #6FB93C",
"e. c #6EBA3C",
"r. c #6FB93E",
"t. c #71B63F",
"y. c #71B939",
"u. c #70B83B",
"i. c #71B93B",
"p. c #70BB3A",
"a. c #71B93C",
"s. c #70BB3C",
"d. c #70BA3D",
"f. c #72BA3D",
"g. c #71B83E",
"h. c #72B83E",
"j. c #72B93F",
"k. c #73B93F",
"l. c #63C61E",
"z. c #64C422",
"x. c #66C124",
"c. c #65C324",
"v. c #65C325",
"b. c #67C225",
"n. c #66C126",
"m. c #65C327",
"M. c #67C227",
"N. c #66C128",
"B. c #65C229",
"V. c #67C229",
"C. c #67C02A",
"Z. c #67C12B",
"A. c #67C12C",
"S. c #68C129",
"D. c #68C328",
"F. c #68C12B",
"G. c #6AC02B",
"H. c #69C22A",
"J. c #68C32A",
"K. c #68C02C",
"L. c #69C12D",
"P. c #6BC12C",
"I. c #6BC02D",
"U. c #69C22C",
"Y. c #68C02E",
"T. c #6BC02F",
"R. c #74D72F",
"E. c #76D730",
"W. c #77D735",
"Q. c #76D436",
"!. c #77D536",
"~. c #77D537",
"^. c #78D735",
"/. c #79D437",
"(. c #77D539",
"). c #77D43B",
"_. c #7AD339",
"`. c #78D33A",
"'. c #7AD33B",
"]. c #79D439",
"[. c #79D43B",
"{. c #7BD43A",
"}. c #7AD53A",
"|. c #7BD03D",
" X c #79D23C",
".X c #79D33D",
"XX c #7AD33D",
"oX c #7BD03F",
"OX c #7AD23E",
"+X c #7BD33F",
"@X c #7CD23D",
"#X c #7CD13E",
"$X c #7DD23F",
"%X c #7BD43C",
"&X c #7AD53C",
"*X c #7BD43E",
"=X c #71B641",
"-X c #72B740",
";X c #73B642",
":X c #72B742",
">X c #73B643",
",X c #72B743",
"<X c #73B645",
"1X c #73B547",
"2X c #74B744",
"3X c #75B547",
"4X c #74B746",
"5X c #71B840",
"6X c #73B841",
"7X c #71B842",
"8X c #73B843",
"9X c #76B34B",
"0X c #75B449",
"qX c #76B449",
"wX c #76B648",
"eX c #75B44B",
"rX c #76B34C",
"tX c #76B24E",
"yX c #78B24E",
"uX c #78B150",
"iX c #7CCF41",
"pX c #7ECF44",
"aX c #7DCF46",
"sX c #7ECF46",
"dX c #7ECE47",
"fX c #7FCC48",
"gX c #7FCF48",
"hX c #7ECE49",
"jX c #7AD240",
"kX c #7BD341",
"lX c #7DD040",
"zX c #7CD140",
"xX c #7DD241",
"cX c #7DD042",
"vX c #7CD142",
"bX c #7ED143",
"nX c #7DD243",
"mX c #7CD044",
"MX c #7DD044",
"NX c #7ED145",
"BX c #7ED047",
"VX c #80CE47",
"CX c #80CD49",
"ZX c #81CC4B",
"AX c #80CD4B",
"SX c #81CB4E",
"DX c #81CC4D",
"FX c #81CE4C",
"GX c #83CA50",
/* pixels */
"Q } 2.p $.] q $.$.% q $.$.] XXF.Q $.p 2.$.$.a.N p $.} $.a.l 2.+.q } XXV.Q ] MX] } $.N J J l $.] } ] ] $.p 2.0.% ] ] p w ] Q F.[.",
"} $.+.& ] ] $.$.MX] #.#.] Q XXQ ] $.p +.$.X.x l +.$.] $.x x p $.$.] #XK.] #.% #.$.+.a.A A 2.$.] ] ] $.$.& 2.$.] Q vX$.$.] K.F.'.",
"2.p $.} Q Q ] ] vXK.K.XXK.Q Q ] +.2.$.} p +.$.$.$.$.] ] $.$.] Q ] ] #X] $.2.p $.+.+.l l +.$.] ] % $.p +.$.] ] Q K.vX] ] XXV.Q Q ",
"2.p $.] Q vXQ Q Q Q Q vXMX#.$.$.+.$.Q vXp 2.} ] % $.$.] Q Q Q #XQ Q Q } 2.2.$.$.p +.2.+.$.$.} } $.+.l i.$.] vXQ Q Q } ] XXXX] $.",
"+.p p 2.p sX] ] } MX+.2.GXa.2.p 5 Q F.vXp 2.$.} p 2.2.% F.M.F.#XXXQ } $.+.$.] MXp 2.$.$.p 2.+.$.} $.N N 2.% vXQ Q } AX2.$.sX2.2.",
"$.$.p 2.x 2.$.] ] } 0.w.8X,Xa.p #XV.F.#X% X.] ] p w.a.q Q %XQ ] MX$.$.q 4 Q F.jX& +.] ] x w.2.p } $.2.N w.p ] ] ] ] +.2.2.2.2.2.",
"} } $.$.x x & #.F.XX] $.x a.2.$.'.M.M.#X] ] [.XX& l 2.q 5 ] +.a.,X,X2.5 !.z.M.XX% $.Q ] x a.i.p $.$.$.$.+.p l p ] K.XX] +.p ] K.",
"+.$.$.+.2.2.& sXF.F.] $.& fXfX] M.!.M.XX] Q M.XX$.p $.$.MXMX2.8XP <X2.Q !.l.M.XX] ] XXvXp l 2.p q $.2.2.+.2.a.l iXF.F.Q +.& jX[.",
",X,X,Xa.+.$.% MX] ] 2.x X.] vXXXM./.V.XX] } Q XX#XQ Q Q Q ] +.2.p DXsXQ M.!.M.XX] ] F.XX] % $.] vX+.3XeXa.+.a.p vXF.] $.x 2.] XX",
"8X,X,Xl $.] % sX] $.N N $.] ] Q M.[.V.#X% $.$.] XXF.F.#XXXQ +.p $.] sXvXV.!.V.XX] ] K.XXvXQ ] Q K.$.<X3Xl +.2.p vXQ $.p x 2.$.} ",
"] MX+.p } ] $.$.] $.N a.X.$.p $.'.!.F.] % +.w.2.#XF.Q Q XXQ x l $.] $.] M.!.V.vX% +.} Q XXF.K.XX'.K.MX$.q $.+.$.] ] +.x 2.i.a.N ",
"V.XX] } ] } p $.] } x x $.$.a.w.Q F.Q } $.a.<XN vXF.Q Q %XQ x a.$.$.p $.[.!.F.] p 2.2.$.#XV.K.I [.M.[.F.] $.$.q $.$.+.p % +.a.,X",
"F.XXXX#X} $.l 2.Q XX] $.] $.N N ] Q Q $.2.,XyXP sXF.Q F.'.Q p x $.$.,Xa.] Q Q ] } 2.3Xm MXF.Q Q '.M.[.XX#X] $.p 2.+.MXQ ] $.2.x ",
"] Q Q Q ] $.2.2.Q #X] $.] $.w.x ] Q Q ] 2.,X9XJ $.Q ] vXF.#X$.+.$.+.A A $.] ] ] ] 2.9XP sXF.Q Q XXF.Q Q Q Q } $.2.+.vXK.Q Q $.$.",
"$.$.+.q } ] % sX] ] x l $.} +.$.M.!.F.vX$.2.2.+.] ] +.0.] vX] $.$.$.2.p $.] ] ] $.2.,XJ $.Q Q #XQ ] p 2.] Q Q vX] $.% ] Q F.Q vX",
"$.sX+.p } ] $.$.] $.l a.$.$.p $.[.!.F.Q % $.2.+.vXQ +.+.MX4 } } $.p $.$.$.$.$.$.fX+.i.2.$.Q Q Q Q $.l N w.+.Q XXQ ] $.] XX%X4 MX",
"K.XXQ Q ] } p +.] ] x x $.$.,Xa.] Q Q ] ] 2.3Xm MXV.] $.MX5 ] ] 2.p $.$.p 2.p +.MX] } } Q K.Q #X'.Q 2.J rXeX+.vXXXXX] Q M.[.% 2.",
"F.'.XXXXQ $.l 2.] vX$.0.} $.J J $.] ] ] $.a.9XP VXQ Q Q MX5 ] ] 0.p $.$.x w.l 2.] Q Q vXjXK.Q U #XQ +.J uXrXw.5 Q Q ] K.[.XXx t.",
"Q Q Q Q Q $.2.2.K.XX] } ] $.a.x ] Q ] $.2.,X,XN 2.$.Q %XK.Q Q vXvX% p 2.x x l 2.} ] $.% MX] ] ] } $.2.J 9XeXw.% p $.] ] Q ] ,XeX",
"] ] ] ] Q } 2.2.vXQ +.2.$.$.2.p vXK.] $.a.N DXAX2.$.XXV.XXK.Q Q XXQ q 2.$.AXx 2.$.$.$.$.% $.] } p 2.2.l ,X,X+.$.p 0.] ] } 2.,XeX",
"] ] } 4 Q ] 0.p sX+.3XeX2.$.2.p vXK.] +.l 2.$.vXvXK.XXV.XXQ Q Q [.[.] ] Q ] p l 2.2.$.#.p +.} $.x i.2.+.+.$.Q Q $.$.} } +.2.8X,X",
"] ] Q vXvX] +.p % 2.<X3Xl +.2.p vXU $.p x 2.$.] K.F.XXF.vX4 $.] V.[.Q Q '.XX$.2.,Xa.$.#.p +.$.$.x l p $.+.$.vXvXq $.] ] p x a.a.",
"Q Q '.%X% $.$.$.% $.sX$.q $.+.$.Q ] +.x 2.2.a.p Q [.XXQ } q 2.+.] XXQ Q F.XX] 2.,X3X2.$.+.+.$.$.+.+.$.+.,X,Xw.2.2.2.] Q ] $.x a.",
"} Q [.V.% +.} ] $.] XXF.] $.$.q $.$.0.p q +.a.2.] F.Q Q } 2.,X8Xp MX] Q F.XX] 2.,X,Xa.p +.p +.% % ] Q } a.,X,Xa.a.2.$.vX] ] w 2.",
"$.] XXXX% $.Q Q ] ] XXXX#X] $.p 2.+.MXQ ] $.2.p p $.] ] ] 2.9XrXN sX} Q F.#Xp l i.2.l x a.p 2.% ] XX'.F.$.2.N 8X2.p p sXvX] q 2.",
"+.% ] Q } ] vXQ ] Q ] ] Q ] $.2.w.2.vXQ Q ] } $.p 2.+.$.} 2.eXeXN $.] Q #X] 2.N p +.a.a.w.p $.] Q K.[.'.Q $.l N a.2.p $.] Q ] $.",
"2.p $.$.} } sX5 ] $.p x $.$.p x w.x $.5 Q XX'.F.] $.l w.$.p N SXsX] vX] % 2.a.l p 2.N a.2.% ] #XQ Q Q vXQ $.2.N J A x $.] K.Q Q ",
"2.x l 2.] Q MX% $.+.a.N p +.a.a.w.p $.] Q K.[.'.Q $.l N i.2.p $.] K.Q } p 2.2.p $.$.x l $.] K.XXQ } $.% } $.+.2.J A 2.$.] Q XX[.",
"$.+.A N #.#XvX] p 2.a.l p 2.N 8X2.% Q XXQ Q Q vX] } +.l J A x $.] ] $.$.p +.$.] Q XX} $.] Q Q vX] $.2.l $.$.+.p p 2.$.} $.4 F.!.",
"Q $.N N $.] Q ] p 2.2.p $.+.l l +.] F.XXQ ] $.% } } $.a.A A 2.$.} $.p 2.+.$.] Q F.XXQ U XXF.Q ] ] $.w.a.+.% $.$.+.$.} ] $.} XX[.",
"] $.p 2.2.+.] ] q +.$.] ] vX$.#.] K.K.XXQ $.2.l +.$.$.p w 2.$.} $.p N a.2.} XXF.Q Q F.M.!.[.Q ] $.2.$.$.sX% } $.2.p $.] $.$.Q Q ",
"] ] $.+.2.w.0.+.2.+.} Q K.K.Q I XXV.K.K.] $.a.a.+.% $.$.+.$.} } $.2.N N i.q vXQ ] Q #XF.F.vX] $.% % ] ] MX5 ] ] 2.& $.$.p +.} ] ",
". ] ] ] 2.8Xa.,X,Xa.$.vXK.F.M.M.!.(.Q } +.2.$.$.sX% } $.2.p } } $.+.2.x 2.x 2.$.} } +.2.i.i.2.$.: [.Q ] vX4 Q ] +.& +.+.l 2.$.] ",
"] vX#XQ +.a.N ,X,Xl q vXvXK.XXF.F.vX] $.% % ] ] MX5 ] ] 2.& $.} p 2.2.w.2.x l p ] ] AXa.,XA 2.#.F.[.K.Q #XQ Q vXMX% p 2.w p $.] ",
"} Q '.'.] +.N J 8Xw.x +.] ] $.0.2.w.w.$.: [.Q ] vX4 Q ] +.p $.+.l 8X<X,X2.$.2.& vXQ } +.w.& vXXX] ] XXF.'.F.Q Q XXA.% $.#.MX] ] ",
"} ~ Q XXQ $.w.N N l l +.$.$.AXa.,XA 2.#.V.[.K.Q #XQ Q vXMX% & 2.x N <X,X2.$.2.p #XF.] $.p $.Q XXMX] XXV.XXQ Q K.(.(.] } K.K.Q Q ",
"] ] $.% } } +.w.N l +.$.$.$.$.+.a.p vXXX] ] XXF.'.F.Q Q XXK.% $.#.sXw.a.x 2.2.% vXQ +.p p $.$.] K.V.[.F.MX% ] K.V.[.Q Q [.[.Q ] ",
"Q ] 2.x $.$.$.p l 2.$.] $.% $.$.p $.Q XXvX] XXV.XXQ Q Q [.[.] } Q Q AX2.p 2.+.$.] ] 2.x +.$.$.5 K.[.%XQ 2.x #.Q K.XX] ] K.XXQ ] ",
"] $.2.w.2.% $.$.+.+.} ] ] $.+.p p $.$.] F.V.[.K.MX% ] Q K.XXQ Q %XXXsX2.$.#.$.% ] ] +.p p $.] Q Q Q Q $.,X,X$.] ] } $.$.$.$.] ] ",
"] $.2.2.AX% ] ] $.% } ] $.+.2.p +.$.0.% F.[.'.Q +.p $.] Q K.] Q Q ] 2.2.$.] +.+.$.$.2.2.$.] Q vX] $.} +.,X,X+.} q $.p 2.x p ] Q ",
"% % $.$.MX4 ] ] $.% } $.l a.2.p q +.2.2.] Q Q } 2.a.2.$.Q XX] $.} $.a.a.+.$.p 2.l 2.N l Q F.F.vX% 2.+.p A ,X2.q q +.p 2.p $.XX[.",
"% sX] Q #XU Q ] $.$.$.+.,X,Xa.2.+.2.a.2.$.] ] } i.a.,X2.Q XX% +.$.p A ,X2.p p 2.l a.l 0.#X[.V.vXp 2.0.2.N A 2.+.$.+.p 2.$.Q F.[.",
"#.MXQ Q XXF.#X] } $.+.2.a.8X8Xl w.x a.x % ] Q ] 2.8X8X2.K.XXq 2.$.+.J J 2.$.$.$.x 2.$.] K.XX'.vX+.p $.$.N A a.p +.$.p $.vXF.K.K.",
"] ] #XF.[.V.XX4 ] $.x l a.a.N N w.l 2.p $.vX#XQ +.a.J w.vXXX+.p $.$.N A 2.% $.$.p $.vXK.K.Q Q ] +.p } $.x w.2.p % $.$.} #XF.] #.",
"vXK.XXV.!.M.XX4 } +.2.N l w.2.2.w.p $.] ] Q '.'.] +.N N ] ] 2.x $.$.x 2.$.5 % $.$.] XXV.Q Q } $.$.q } ] $.$.vXQ Q ] ] ] #XQ +.a.",
"F.V.XXV.(.[.#X] p 2.w.x x 2.p 2.2.% ] vX} ] F.XXQ $.2.x $.$.+.p } ] $.$.vX] ] ] ] Q XXK.] $.+.p $.$.] ] ] Q XXV.F.XXQ Q Q ] 2.a.",
"M.[.XXK.U Q Q $.l a.2.p $.$.p p $.] Q vX+.2.$.5 ] ] $.$.$.% $.] Q Q ] ] vXK.K.XXK.Q Q ] +.2.i.p +.$.] vXQ Q M.M.F.XXXXQ ] $.+.2.",
"M.V.F.Q ] ] $.+.a.,Xw.0.$.$.2.2.$.] Q ] 2.a.a.2.+.$.] ] } $.} ] Q vX] Q Q K.F.XXXXQ ] $.2.a.a.x p $.5 vXQ Q K.XX] ] MX$.+.p % ] ",
"Q Q vXQ ] } 2.w.a.8X8XN 2.x i.x % ] Q Q 2.a.,X,X,X2.$.vXQ ] % $.5 vX] Q ] vXQ Q #XQ $.q p 2.a.w.p $.% } ] ] +.2.2.w.,X,X,Xx vXV.",
"Q Q vX: ] $.x N a.a.N N w.x 2.p #.vX#XQ +.a.N ,X,XN q vXvX] +.+.$.] Q ] $.$.$.$.$.$.$.$.$.$.a.i.+.$.+.$.$.+.w.a.2.w.,X<X,Xa.$.Q ",
"'.V.#X4 } $.2.l l w.2.2.w.p $.] ] Q '.'.] +.N J 8Xw.x +.] ] 2.p % ] Q } +.w.a.a.a.2.$.vXQ } a.a.2.+.p a.p w.N N ] ] $.2.,X,X,X,X",
"F.XXvX] q 2.2.x p 2.p 2.2.% Q #XQ K.F.XXQ $.w.N N l x +.$.$.+.p $.vX#XQ +.a.J ,X,XN q vXvX] N ,Xi.p p 2.l w.N 2.vXXXQ $.a.J 3XeX",
"Q Q ] ] p 2.a.p $.#.p p $.] F.XXQ ] $.% } } +.w.l l 0.$.$.$.} ] ] K.'.'.] +.N J 8Xw.x +.} $.J J 2.$.$.$.x 2.$.] K.XXXX] +.l J 3X",
"] ] } $.p 2.+.#.Q vX$.$.Q F.F.%XQ } 2.x $.$.$.p l 2.$.] $.. Q #XQ Q U XXQ $.w.N N l l +.$.$.N A 2.% } $.p $.vXK.K.Q vX] $.2.N J ",
"] ] p +.$.] ] Q K.vX] ] [.F.K.Q ] $.2.w.2.% $.$.+.+.} } ] ] Q #XQ ] $.% } } +.w.N l +.$.$.$.p 2.$.% % $.$.] XXV.Q ] q +.$.$.8XJ ",
"} $.x 2.$.] vXQ Q Q ] ] XXXX] $.] $.2.2.AX% ] } +.& } } } ] Q #XQ $.2.x $.$.$.p l 2.$.] $.5 $.$.MX] #.] ] Q XXK.] $.p +.$.$.l N ",
"$.+.N N 2.& vXQ Q ] AX2.$.fX2.2.& % $.$.sX% ] $.2.p $.} p +.] Q ] $.2.w.2.% } } +.+.} ] ] ] ] ] jXK.K.XXQ Q Q ] +.2.$.} p 2.$.$.",
"4 } 2.N 2.p $.] ] ] $.0.2.2.2.2.& MX] ] vX: Q ] $.& $.$.p 2.$.$.] $.2.2.AX& } } $.% } ] } ] ] ] K.K.Q vXMX$.$.$.0.$.Q vXp 2.$.] ",
"E.M.] $.$.p l p ] K.XXK.$.x ] ] ] MXQ K.XXF.Q vXvX% p 2.p x 2.2.& % $.$.sX5 ] } +.p } } p +.] ] ] sX+.w.GXa.2.p 5 Q F.vXp 2.$.] ",
"R.M.$.2.$.+.a.l vXV.V.K.$.p vXXXQ ] #XF.'.F.K.Q XXQ q +.$.fX2.2.& sX] } vX4 ] ] $.& $.$.p 2.$.] ] ] 2.a.,X,Xa.p #XM.V.XX% $.] Q ",
"F.$.<XeXi.+.a.p vXF.] $.x 2.] XX#XK.XXK.XXQ Q Q [.[.Q ] Q F.Q ] ] MXQ Q XXF.Q vXvX% p 2.p p p #.F.%X} $.x w.a.$.'.M.M.XXQ ] %X[.",
"Q $.<X3Xl 0.2.& vXQ $.p x 0.$.] K.V.XXK.vX4 $.] V.[.Q Q '.'.'.XXQ ] #XF.'.F.U Q XXQ q 2.$.sXp sXF.F.} $.p fXAX] M./.M.XX] Q F./.",
"M.F.MX$.q $.+.$.] ] +.x 2.2.a.p K.[.XXQ } q 2.+.] XXQ Q F.'.F.XX#XK.XXK.XXK.Q Q [.[.] ] Q Q % sX] ] 2.x $.] vXXXM./.F.XX] ] Q XX",
"!.M.'.Q } $.$.% ] $.0.x p 2.,X2.Q M.I ] $.+.a.2.5 vX] Q F.'.F.Q K.F.XXV.XX: } Q M.(.Q Q '.XX5 sX] $.N N $.Q F.V.M.[.V.XX% $.Q Q "
};
