/* XPM */
static char * sky_xpm[] = {
/* columns rows colors chars-per-pixel */
"64 64 113 2 ",
"   c #7F85A9",
".  c #7F84AA",
"X  c #7E83AD",
"o  c #7C83AF",
"O  c #7F84AC",
"+  c #7F84AE",
"@  c #7E82B1",
"#  c #7D83B3",
"$  c #7F83B2",
"%  c #7D84B0",
"&  c #7D84B2",
"*  c #7C84B3",
"=  c #7B83B4",
"-  c #7B82B6",
";  c #7C82B4",
":  c #7D83B5",
">  c #7C83B7",
",  c #7D83B7",
"<  c #7C84B5",
"1  c #7B82B8",
"2  c #7B81BB",
"3  c #7A83BA",
"4  c #7D82B9",
"5  c #7C83B9",
"6  c #7C83BA",
"7  c #7A84B9",
"8  c #7982BD",
"9  c #7A83BC",
"0  c #7981BF",
"q  c #7983BE",
"w  c #7A83BE",
"e  c #7C82BC",
"r  c #7C82BE",
"t  c #7782C4",
"y  c #7882C0",
"u  c #7983C0",
"i  c #7983C1",
"p  c #7A82C0",
"a  c #7A82C1",
"s  c #7982C3",
"d  c #7881C4",
"f  c #7982C5",
"g  c #7883C5",
"h  c #7881C6",
"j  c #7882C7",
"k  c #7982C7",
"l  c #7781C8",
"z  c #7781C9",
"x  c #7581CB",
"c  c #7682CA",
"v  c #7682CC",
"b  c #7580CF",
"n  c #7481CF",
"m  c #7780CF",
"M  c #7583CE",
"N  c #7682CE",
"B  c #7783CF",
"V  c #7981C9",
"C  c #7882C9",
"Z  c #7882CA",
"A  c #7983CA",
"S  c #7881CC",
"D  c #7982CD",
"F  c #7881CE",
"G  c #7982CF",
"H  c #7580D0",
"J  c #7481D0",
"K  c #7681D0",
"L  c #7681D1",
"P  c #7582D0",
"I  c #7582D1",
"U  c #7782D1",
"Y  c #7683D1",
"T  c #7782D2",
"R  c #7881D0",
"E  c #7880D1",
"W  c #8085A2",
"Q  c #8185A2",
"!  c #8184A7",
"~  c #F2FBFF",
"^  c #F4FBFF",
"/  c #F5FBFF",
"(  c #F6FBFF",
")  c #F7FBFF",
"_  c #F4FCFF",
"`  c #F5FCFF",
"'  c #F5FDFF",
"]  c #F6FCFF",
"[  c #F7FCFF",
"{  c #F7FDFF",
"}  c #F8FBFF",
"|  c #F8FCFF",
" . c #F9FCFF",
".. c #F8FDFF",
"X. c #F9FDFF",
"o. c #FBFCFF",
"O. c #FAFDFF",
"+. c #FBFDFF",
"@. c #F8FEFF",
"#. c #F9FEFF",
"$. c #FBFEFF",
"%. c #FEFEFC",
"&. c #FFFFFD",
"*. c #FCFDFF",
"=. c #FDFDFF",
"-. c #FEFDFF",
";. c #FCFEFF",
":. c #FCFFFF",
">. c #FEFEFE",
",. c #FEFEFF",
"<. c #FFFEFF",
"1. c #FEFFFF",
"2. c white",
/* pixels */
"K K K K K K K K R R K K K K K K K K K K K K K K K K K K K K K K K K K K K K K K K K K K K K K K R R K K K K N K K K K K K K K K ",
"K K K K K K K K R R K K K K K K K K K K K K K K K K K K K K K K K K K K K K K K K K K K K K K K N R K N K N S C S S N K K K K K ",
"K K K K K K K K K K R R N N K K K K K K K K K K K K K K R R K K K K K K K K K K K K K K K K K K K K K K K N f s s f S K K K K K ",
"K K K K K K K K K K R R N N K K K K K K K K K K K K K K R R K K K K K K K K K K K K K K K K K K K K K N N f - [ ) 6 f S K K K K ",
"K K K K K K K K K K K K K K K K K K K K K K K K K K K K K K K K K K K K K K K K K K K K K K K K K K K N f > | | | . 6 f S K K K ",
"K K K K K K K K K K K K K K K K K K K K K K K K K K K K K K K K K K K K K K K K K K K K K K K K K N S f > | 1.1.1.| [ < 9 f C C ",
"K K K K K K N N K K R R K K K K K K K K K K K K K K K K K K K K K K K K K K K K K K K K K K K K K S f ) | 1.1.1.1.1.1.| | + 9 s ",
"K K K K K K N N K S C C S K K K K K K K K K K K K K K K K K K K K K K K K K K K K K K K K K K K K C 9 . 1.1.1.1.1.1.1.1.1.| [ X ",
"K K K K K K K K K C e e l K K K K K K K K K K K K K K K K K K K K K K K K K K K K K K K K K K K K f X | 1.1.1.1.1.1.1.1.1.1.1.1.",
"K K K N K N S C f 6 [ [ 9 C N K K K K K K K K K K K K K K K K K K K K K K K K K K K K K K K K N S 9 [ | 1.1.1.1.1.1.1.1.1.1.1.1.",
"K K K K K S f 9 + | 1.| . 1 C K K K K K K K N K K K N N K K K K K K K K K K K K K K K K K K K S f ~ [ | | | } | | | | | | | | | ",
"K K K N N f 1 | | 1.1.1.| [ s S N K K K K K N K K K N N K K K K K K K K K K K K K K K K K K K S f s 1 > # # > < # * > < # * > < ",
"K K K N t > | 1.1.1.1.1.1.| > f S K K K K K K K K K K K K K K K K K K K K K K K K K K K K K K N S C C f f f f f f f f f f f f f ",
"K K K C 9 | 1.1.1.1.1.1.1.1.| # 6 s C S N K K K K K K K K K K K K K K K K K K K K K K K K K K K K K K K R R K K K K K K K K K K ",
"K K K f + | 1.1.1.1.1.1.1.1.1.1.1.| 6 f S K R R K K K K R R K K K K K K K K K K K K K K K K K K K K K K K K K K K K K K K K K K ",
"K K K s [ | 1.1.1.1.1.1.1.| 1.1.1.| ) s S K R R K K K K R K K K K K K K K K K K K K K K K K K K K K K K K K K K K K K K K K K K ",
"K K K f [ | | | | | | | | | | | | | ) s S K R R K K K K K K K K K K K K K K K K K K K K K K K K K K K K K K K K K K K K K K K K ",
"K K K C 1 * > < # * > < # * > < # > s f S K R R K K K K K K K K K K K K K K K K K K K K K K K K K K K K K K K K K K K K K K K K ",
"K K K N C f f f f f f f f f f f f C l S K K K K K K N K K K K K K K K K K K K K K K K K N N K K K K K K K K K K K K K K K K K K ",
"K K K K K K K K K K K K K K K K K K K K K K K K K K N K K K R R K N C C N N l l S S N K N N K K K K K K K K K K K K K K K K K K ",
"K K K K K K K K K K K K K K K K K K K K K N K K K K K K K K K K K C 9 9 C N f s s f S K K K K N K K K K K K K K K K K K K K K K ",
"K K K K K K K K K K K K K K K K K K K K N N K K K K K K K K K N S s [ [ s f 6 ) [ - f S N K K K K K K K K K K K K K K K K K K K ",
"K K K K K K K K K K K N K K K K N N K K K K K K K K K K K K K S f < | | < 6 . | | | - f S K K K K K K K K K K K K K K K K K K K ",
"K K K K K K K K K K N N K K K K N N K K K K K K K K K K K N S f > | 1.1.| . | 1.1.1.| > 9 f S K K K K K K K K K K K K K K K K K ",
"K K K K K K K K K K N N K K K K K K K K K K K K K K K K K S f > | 1.1.1.1.1.1.1.1.1.| | | # f K K K K K K K K K K K K K K K K K ",
"K K K K K K K K K K N N K K K K K K K K K K K K K K K K K C 1 | 1.1.1.1.1.1.1.1.1.1.1.1.| [ f K K K K K K K K K K K K K K K K K ",
"K K K K K K K K K K K K K K K K K K K K K K K N K K R R K f + | 1.1.1.1.1.1.1.1.1.1.1.1.| e C K K K K K K K K K K K K K K K K K ",
"K K K K K K K K K K K K K K K K K K K K K K N N K K R R K f ) | | 1.1.1.1.1.1.1.1.1.| | 6 f S K K K K K K K K K K K K K K K K K ",
"K K K K K K K K K K K K K K K K K K K K K K K K K K K K K S f 9 > [ | | | | | [ > 9 9 s C S K K K K K K K K K K K K K K K K K K ",
"K K K K K K K K K N S C N N N K K K K K K K K K K K K K K N K S f s 6 < # * > 9 C K K K K K K K K K K K K K K K K K K K K K K K ",
"K K K K K K K K K S f s s f S K K K K K K K K K K K K K K K K N S C C f f f f C N K K K K K K K K K K K K K K K K K K K K K K K ",
"K K K K K N S C C f e ) ) > f N N K K K K K K K K K K K K K K K N K K K K K K K K K K K K K K K K K K K K K K K K K K K K K K K ",
"K K K K K S f s s 9 > | | | > f N K R R K K K K K K N K K K K K K K K K K K K K K K K K K K K K K K K K K K R R N K K K K K K K ",
"K K K K K l 1 ) [ + ! | 1.| [ 7 C K R R K K K K K K N K K K K K K K K K K K K K K K K K K K K K K K K K K K R R K K K K N K K K ",
"K K R N K s + | | 1.1.1.1.1.1.[ s K K K K K K K K K K K K K K K K K K K K K K K K K K K R R K K K K K K K N K K K K K K N N R R ",
"K N S C f > | 1.1.1.1.1.1.1.1.1.* s C S N K K K K K K K K K K K K K K K K K K K K K K K R R K K K K K K K N N C S S N K N N R R ",
"K N f 9 + | 1.1.1.1.1.1.1.1.1.1.1.| 1 f S K K K K K K K K K K K K K K K K K K K K K K K K K K K K K K K K N f s s f S K K K K K ",
"K C s [ | 1.1.1.1.1.1.1.1.1.1.1.1.1.| - f S K K K K K K K K K K K K K K K K K K K K K K K K K K K K K S f 9 > [ [ 6 C K K K K K ",
"K C ) | | 1.1.1.1.1.1.1.1.1.1.1.1.1.1.| - f S K K K K K K K K K K K K K K K K K K K K K K K K K K K K f [ Q | 1.1.| s K K K K K ",
"K C e # . | | | | | 1.1.1.1.1.1.1.1.1.| [ f S K K K K K K K K K K K K K K K K K K K K K K K K K K S f > | 1.1.1.1.| 6 S N K K K ",
"K N C f s s 9 9 9 6 * [ | | | | | | | [ s S K K K K K K K K K K K K K K K K K K K K K K K K K K K f * | 1.1.1.1.1.1.# f S K K K ",
"K K K K K K K K N C f 9 > * > < # * > 9 C N K K K K K K K K K K K K K K K K K K K K K N S C f s s # | 1.1.1.1.1.1.1.[ 6 f S N K ",
"K K K K K K K K K N S C f f f f f f f C N K K K K K K K K K K K K K K K K K K K K K K S f 9 > + | 1.1.1.1.1.1.1.1.1.| . 6 f S K ",
"K K K K K K K K K K K K N N K K K K K K K K K K K K K K K K K K K K K K K K K K K K K C 1 [ | | 1.1.1.1.1.1.1.1.1.1.1.| [ < s f ",
"K K K K R R K K N N K K R R K K K K K K K K K K K K R R N N K K K K K K K K K K N N K s + | 1.1.1.1.1.1.1.1.1.1.1.1.1.1.1.| ) < ",
"K K K K R R K K N N K K R R K N K K K K K K K K K K R R N N K K K K K K K K K K N N K f [ | | | 1.1.1.1.1.1.1.1.1.1.1.| | | [ < ",
"K K K K K K K K K K N K K K K K K K R R K K K K K K K K K K K K K K K K K K K K K K K S f s 9 6 # [ | | [ * * [ | | > 9 9 s f C ",
"K K K K K K K K K K K K K K K K K K R R K K K K K K K K K K K K K K K K K K K K K K K K K K K S f s 6 6 s s s 9 > 6 C R K K K K ",
"K K K K K K K K K K K K K K K K K K K K K K K K K K R R K K K K K K K K K K K K K K S S K K K N S l C C C C S C f C S K K K K K ",
"K K K K K K K K K K K K K K K K K K K K K K K K K K R R K K K K K K K K K K K K K N S C C N N K K K R R K K R R K K K K K K K K ",
"K K K K K N K K K K K K K K K K K K K K K K K K K K K K R R K K K K K N K K K K N C f s s f N K K K K K K K K K K K K K K K K K ",
"K K K K K N K K K K K K K K K K K K K K K K K K K K K K R R K K K K K N K N K K N C 1 ) [ - s C N N S S N K N K K K K K K K K K ",
"K K K K K K K K K K K K K K K K K K K K K K K K K K K K K K K K K K K K K K K K K s + | | | + 9 C S f f S K K K K K N N K K K K ",
"K K K K K K K K K K K K K K K K K K K K K K K K K K K K K K K K K K K K K N C f s # | 1.1.1.| [ > 6 ) < s C N N K K N N K K K K ",
"K K K K K K K K K K K K K K K K K K K K K K K K N N K K K K K K K K K K K C 9 + | 1.1.1.1.1.1.1.| | 1.| + 1 C N K K K K K K K K ",
"K K K K K K K K K K K K K K K N C f f f C S N K N N K K K K K K K K K N l 9 [ | 1.1.1.1.1.1.1.1.1.1.1.1.| [ f K K K K K K K K K ",
"K K K K K K K K K K K K K K K C 1 * . [ 9 f S K K K K K K K K K K K K C ) | 1.1.1.1.1.1.1.1.1.1.1.1.1.1.| [ s K K K N N K K K K ",
"K K K K K K K K K K K K K N S s [ | | | [ > 9 f S K K K K K K K K K K C 6 + | 1.| | | | 1.1.1.1.1.1.1.1.| + f K K K N N K K K K ",
"K K K K K K K K K K N K K S f < | 1.1.1.1.| | # f K K K K K K K K K K N C s s 9 9 9 9 6 # [ | | 1.1.1.1.[ 9 C K R R R R K K K K ",
"K K K K K K K K K K K N C s > | 1.1.1.1.1.1.1.| 9 S N K K K K N K K K K K K K K K K K S f 9 6 + | 1.| | 6 f S K R R R R K K K K ",
"K K K K K K K K K K K C 1 + | 1.1.1.1.1.1.1.1.| > f S K K K K N K K K K K K K K R K K N S C C f s 9 9 s C S N N K K K K K K K K ",
"K K K K K K K N N C f 6 [ | 1.1.1.1.1.1.1.1.1.1.| < s C C S N N K K K K K N K K K K K K K K K K K K K K K K N N K K K K K K K K ",
"K K K K K K K N f ~ [ | 1.1.1.1.1.1.1.1.1.1.1.1.1.| + 6 s f S K K K K K K K K K K K K K K K K K K K R R K K K K K K K K K K K K ",
"K K K K K K K C s < Q 1.1.1.1.1.1.1.1.1.1.1.1.1.1.1.| [ ) s S K K K K K K K K K K K K K K K K K K N N R K K K K K K K K K K K K "
};
