/* XPM */
static char *_4daf1a42c2147bee9a6410331eeda3eBGDe2fOXwmlR4WxD[] = {
/* columns rows colors chars-per-pixel */
"64 64 73 1 ",
"  c #0E0000",
". c #0F0000",
"X c #120000",
"o c #140000",
"O c #1B0000",
"+ c #1C0000",
"@ c #1D0000",
"# c #1E0000",
"$ c #1F0000",
"% c #200000",
"& c #220000",
"* c #230000",
"= c #240000",
"- c #250000",
"; c #260000",
": c #270000",
"> c #290000",
", c #AE5B31",
"< c #AD5B33",
"1 c #AF5A33",
"2 c #AE5B33",
"3 c #AE5A35",
"4 c #A75D38",
"5 c #A65D3A",
"6 c #A75D3A",
"7 c #A75E3B",
"8 c #A15F3D",
"9 c #A35F3C",
"0 c #A35E3D",
"q c #A05F3F",
"w c #A15F3F",
"e c #A45D3D",
"r c #A65D3C",
"t c #A45E3C",
"y c #A75E3D",
"u c #A45F3E",
"i c #A05F41",
"p c #8E654F",
"a c #8F654F",
"s c #9D6041",
"d c #9D6043",
"f c #9D6044",
"g c #966348",
"h c #96624A",
"j c #93634C",
"k c #95634C",
"l c #96624C",
"z c #94644D",
"x c #96644D",
"c c #98624A",
"v c #8E6350",
"b c #8A6552",
"n c #8A6553",
"m c #896653",
"M c #8B6653",
"N c #8D6450",
"B c #8F6451",
"V c #8E6551",
"C c #8F6453",
"Z c #8F6652",
"A c #8B6654",
"S c #8A6754",
"D c #8B6656",
"F c #8C6755",
"G c #82675C",
"H c #82685B",
"J c #83695C",
"K c #83685D",
"L c #816A5C",
"P c #84695E",
"I c #906552",
"U c #A16040",
"Y c #A26040",
/* pixels */
"2225=h5225c=522225c=522225>h5225h=522225h=5222223r>h522225>h5222",
"00r0=j0r0dj=0r00r0k=0r00r0=k0r0dj=0rrrr0k=0r00r5ri=k05rrr0=kd0r5",
"++==&&==+++&=&++==&&==++==&&==+++&==++==&&==++====&&==++==&&++==",
".JMaBBBAoJABBAJoABBBBAJoABBBBAoJABBAJoABBBBAJoABBBBBBAoJABBAJoAB",
".JABBBBAoJABBAJoABBBBAJoABBBBAoJABBAJoABBBBAJoABBBBBBAoJABBAJXAB",
"++==&&==+++&==++==&&==++==&&==+++&==++==&&==++====&&==++==&+++=>",
"00ri=jir0dj=05rrr0k=0rrrr0=k0rrdj=0r00r0j=0r00r550=k0r00r0=jd055",
"00ri=jir0dj=05rrr0k=0rrrr0=k0rrdj=0r00r0j=0r00r550=k0r00r0=jd055",
"++==&&==+++&==++==&&==++==&&==+++&==++==&&==++====&&==++==&+++=>",
".JABBBBAoJAaBAPoABvBBAJoMBBBBAoJABBMJoABBBBMJoABBBBBBAoJABBAJoAB",
".JAIBBBAoJAvBAJoABBBBAJoABIBBAoJABBAJoFBBBBAJXFBBBIBBAoJABBAJoAB",
"++==&&==+++&=&++==&&==++==&&==+++&==++==&&==++====&&==++==&+++==",
"0rr0=x0r0dj=Yr00r0x=0rr050=k0r0dx=0rrrrix=0r00r550=k0r00r0=xf0r5",
"00r0=j0r0dj=Yr00r0k=0r0050=k0r0dj=0rrrrij=0r0rr550=k0r00r0=jf0r5",
"O+==&&==+++&==++==&&==&+==&&==+++&==++==&&==++==>=&&==++==&+++==",
".JABBBIAoJMaBAJoABvBBAJoABBBBAoHABBMJoAIBBaMJoAIBBBBBAoGABBAJoAB",
".JABBBIAoJMaBAJoABvBBAJoABBBBAoHABBMJoAIBBaMJoAIBBBBBAoGABBAJoAB",
"O+==&&==+++&==++==&&==&+==&&==+++&==++==&&==++==>=&&==++==&+++==",
"00r0=j0r0dj=Yr00r0k=0r0050=k0r0dj=0rrrrij=0r00r550=k0r00r0=jf0r5",
"0rr0=x0r0dj=Yr00r0x=0rr050=k0r0dx=0rrrrix=0r00r550=k0r00r0=xf0r5",
"++==&&==+++&=&++==&&==++==&&==+++&==++==&&==++====&&==++==&+++==",
".JAIBBBAoJAvBAJoABBBBAJoABIBBAoJABBAJoFBBBBAJXFBBBIBBAoJABBAJoAB",
".JABBBBAoJAaBAPoABvBBAJoMBBBBAoJABBMJoABBBBMJoABBBBBBAoJABBAJoAB",
"++==&&==+++&==++==&&==++==&&==+++&==++==&&==++====&&==++==&+++=>",
"00ri=jir0dj=05rrr0k=0rrrr0=k0rrdj=0r00r0j=0r00r550=k0r00r0=jd055",
"00ri=jir0dj=05rrr0k=0rrrr0=k0rrdj=0r00r0j=0r00r550=k0r00r0=jd055",
"++==&&==+++&==++==&&==++==&&==+++&==++==&&==++====&&==++==&+++=>",
".JABBBBAoJABBAJoABBBBAJoABBBBAoJABBAJoABBBBAJoABBBBBBAoJABBAJXAB",
".JMaBBBAoJABBAJoABBBBAJoABBBBAoJABBAJoABBBBAJoABBBBBBAoJABBAJoAB",
"++==&&==+++&=&++==&&==++==&&==+++&==++==&&==++====&&==++==&&++==",
"00r0=j0r0dj=0r00r0k=0r00r0=k0r0dj=0rrrr0k=0r00r5ri=k05rrr0=kd0r5",
"00r0=j0r0dj=0r00r0k=0r00r0=k0r0dj=0rrrr0j=0r00r5ri=k05rrr0=jd0r5",
"++==&&==+++&=&++==&&==++==&&==+++&==++==&&==++====&&==++==&+++==",
".JABBBBAoJABBAPoABvBBAJoMBBBBAoJABBMJoABBBBMJoABBBBBBAoJABBAJoAB",
".JAIBBBAoJAvBAJoABBBBAJoABIIBAoJABBAJoFBBBBAJoFBaaIBBAoJABBFJoAB",
"++==&&==+++&==++==&&==++==&&==+++&==++==&&==++====&&==++==&+++==",
"0rr0=x0r0dj=Yrr0r0x=0rr0r0=k0r0dx=0r00r0x=0r0rr550=k0r00r0=xd0r5",
"00r0=j0r0dj=Yr00r0k=0r00r0=k0r0dj=0r00r0j=0r00r550=k0r00r0=jd0r5",
"+&==&&==+++&==++==&&==&+==&&==+++&==++==&&==++====&&==++==&+++==",
".JABBBIAoJABBAJoABvBBAJoABBBBAoGABBMJoAIBBBMJoAIBBBBBAoGABBAJoAB",
".JABBBIAoJABBAJoABvBBAJoABBBBAoGABBMJoAIBBBMJoAIBBBBBAoGABBAJoAB",
"+&==&&==+++&==++==&&==&+==&&==+++&==++==&&==++====&&==++==&+++==",
"00r0=j0r0dj=Yr00r0k=0r00r0=k0r0dj=0r00r0j=0r00r550=k0r00r0=jd0r5",
"0rr0=x0r0dj=Yr00r0x=0rr0r0=k0r0dx=0r00r0x=0r00r550=k0r00r0=xd0r5",
"++==&&==+++&==++==&&==++==&&==+++&==++==&&==++====&&==++==&+++==",
".JAIBBBAoJAvBAJoABBBBAJoABIBBAoJABBAJoFBBBBAJoFBaaIBBAoJABBAJoAB",
".JABBBBAoJABBAPoABvBBAJoMBBBBAoJABBMJoABBBBMJoABBBBBBAoJABBAJoAB",
"++==&&==+++&=&++==&&==++==&&==+++&==++==&&==++====&&==++==&+++==",
"00r0=j0r0dj=0r00r0k=0r00r0=k0r0dj=0rrrr0j=0r00r5ri=k05rrr0=jd0r5",
"00r0=j0r0dj=0r00r0k=0r00r0=k0r0dj=0rrrr0k=0r00r5ri=k05rrr0=kd0r5",
"++==&&==+++&=&++==&&==++==&&==+++&==++==&&==++====&&==++==&&++==",
".JMaBBBAoJABBAJoABBBBAJoABBBBAoJABBAJoABBBBAJoABBBBBBAoJABBAJoAB",
".JABBBBAoJABBAJoABBBBAJoABBBBAoJABBAJoABBBBAPoABBBBBBAoJABBAJXAB",
"++==&&==+++&==++==&&==++==&&==+++&==++==&&==++====&&==++==&+++=>",
"00ri=jir0dj=05rrr0k=0rrrr0=k0rrdj=0r00r0j=0r00r550=k0r00r0=jd055",
"00ri=jir0dj=05rrr0k=0rrrr0=k0rrdj=0r00r0j=0r00r550=k0r00r0=jd055",
"++==&&==+++&==++==&&==++==&&==+++&==++==&&==++====&&==++==&+++=>",
".JABBBBAoJAaBAPoABvBBAJoMBBBBAoJABBMJoABBBBMJoABBBBBBAoJABBAJoAB",
".JAIBBBAoJAvBAJoABBBBAJoABIBBAoJABBAJoFBBBBAJXFBBBIBBAoJABBAJoAB",
"++==&&==+++&=&++==&&==++==&&==+++&==++==&&==++====&&==++==&+++==",
"0rr0=x0r0dj=Yr00r0x=0rr050=k0r0dx=0rrrrix=0r00r550=k0r00r0=xf0r5",
"00r0=j0r0dj=Yr00r0k=0r0050=k0r0dj=0rrrrij=0r00r550=k0r00r0=jf0r5",
"O+==&&==+++&==++==&&==&+==&&==+++&==++==&&==++==>=&&==++==&+++==",
".JABBBIAoJMaBAJoABvBBAJoABBBBAoHABBMJoAIBBaMJoAIBBBBBAoGABBAJoAB"
};
