/* XPM */
static char *_732f7139b8e4b52aaab1dbe9590a2d6QGjazK3t6YKlVIIL[] = {
/* columns rows colors chars-per-pixel */
"64 64 186 2 ",
"   c #020301",
".  c #000800",
"X  c #00060E",
"o  c #000815",
"O  c #00061D",
"+  c #000817",
"@  c #000624",
"#  c #000926",
"$  c #00062C",
"%  c #00092D",
"&  c #000533",
"*  c #000833",
"=  c #00033A",
"-  c #001B3C",
";  c #001936",
":  c #5B583D",
">  c #000244",
",  c #1B074F",
"<  c #011744",
"1  c #001C43",
"2  c #001C4B",
"3  c #0D0D57",
"4  c #0C0C59",
"5  c #120A55",
"6  c #190F56",
"7  c #160855",
"8  c #001752",
"9  c #0C145E",
"0  c #05195A",
"q  c #151155",
"w  c #13115C",
"e  c #022546",
"r  c #0E2F46",
"t  c #01254C",
"y  c #0B2F4A",
"u  c #102F44",
"i  c #06314E",
"p  c #08314D",
"a  c #012453",
"s  c #00255C",
"d  c #033254",
"f  c #02325A",
"g  c #130F63",
"h  c #0D1263",
"j  c #001D65",
"k  c #02186C",
"l  c #101163",
"z  c #002563",
"x  c #1C396B",
"c  c #173C67",
"v  c #0C3E7A",
"b  c #0C3F76",
"n  c #133C74",
"m  c #09426C",
"M  c #1F4B6D",
"N  c #0A4173",
"B  c #04437A",
"V  c #054279",
"C  c #154F77",
"Z  c #1D4B75",
"A  c #154E7C",
"S  c #1B4B7C",
"D  c #1E477F",
"F  c #0E517E",
"G  c #10507C",
"H  c #2D4665",
"J  c #2B4769",
"K  c #23496D",
"L  c #264968",
"P  c #3D5E6D",
"I  c #244776",
"U  c #224973",
"Y  c #24467C",
"T  c #21487B",
"R  c #2A4576",
"E  c #3D5D74",
"W  c #365F7D",
"Q  c #395E7A",
"!  c #34607E",
"~  c #4C5D4D",
"^  c #415D6F",
"/  c #415C71",
"(  c #959142",
")  c #978D53",
"_  c #9E875D",
"`  c #FFE473",
"'  c #093E85",
"]  c #0D3A8C",
"[  c #123A82",
"{  c #133888",
"}  c #0E3A91",
"|  c #3A3D88",
" . c #054181",
".. c #0E4E8C",
"X. c #0E4F85",
"o. c #144D84",
"O. c #194A84",
"+. c #1D468C",
"@. c #124C8B",
"#. c #19498B",
"$. c #1B4784",
"%. c #0C5185",
"&. c #0C5189",
"*. c #105080",
"=. c #0E4D92",
"-. c #1B4693",
";. c #134A93",
":. c #184893",
">. c #1A469A",
",. c #13499A",
"<. c #17489A",
"1. c #244583",
"2. c #21458A",
"3. c #2F5F83",
"4. c #325F81",
"5. c #36568C",
"6. c #305F89",
"7. c #2D569D",
"8. c #235C9D",
"9. c #29599D",
"0. c #225D97",
"q. c #335594",
"w. c #315599",
"e. c #2F6183",
"r. c #2F608A",
"t. c #346181",
"y. c #306084",
"u. c #316185",
"i. c #316185",
"p. c #316182",
"a. c #306088",
"s. c #1646A1",
"d. c #1A43A6",
"f. c #1E5DA0",
"g. c #2A56A5",
"h. c #2559A4",
"j. c #2858A2",
"k. c #2B54AD",
"l. c #2359AA",
"z. c #2157AD",
"x. c #3052AB",
"c. c #2D53B8",
"v. c #5A7AA5",
"b. c #5979AB",
"n. c #5A7AAA",
"m. c #477FBB",
"M. c #4D7CBB",
"N. c #4E7DB3",
"B. c #5279BB",
"V. c #5778B5",
"C. c #6173B5",
"Z. c #304DC5",
"A. c #457EC4",
"S. c #4C7BC4",
"D. c #467CC9",
"F. c #4C7AC9",
"G. c #5179C3",
"H. c #5376C8",
"J. c #4A79D2",
"K. c #4B78D9",
"L. c #5270EC",
"P. c #4480BB",
"I. c #4581C3",
"U. c #769CCD",
"Y. c #6D9CDE",
"T. c #7D96D5",
"R. c #729CD4",
"E. c #7B98D1",
"W. c #7D96D9",
"Q. c #7599DC",
"!. c #7998DA",
"~. c #7697DA",
"^. c #6C9DE3",
"/. c #7D94E2",
"(. c #7399E4",
"). c #7597E9",
"_. c #7398E8",
"`. c #7A96E9",
"'. c #F4E586",
"]. c #F7E09A",
"[. c #F8E19B",
"{. c #898FDD",
"}. c #8195D5",
"|. c #8295D2",
" X c #8492DA",
".X c #8491E0",
/* pixels */
"y.y.y.d p.p.p.p.e.d y.y.p.p.y.d p.p.p.p.e.d y.y.p.p.y.d p.p.p.e.e.d y.y.p.p.y.d y.y.p.p.e.d y.y.p.p.e.d p.p.p.p.e.f y.y.p.p.e.d ",
"y.y.d y.d p.p.p.d e.d y.p.e.d y.d p.e.p.d y.d y.y.p.d p.d p.p.p.d e.d y.p.e.d y.d y.p.p.d e.d y.p.p.d y.d p.p.y.d e.d y.p.e.d e.",
"e.d p.p.p.d e.d p.p.y.d e.d p.p.p.d y.d y.y.y.d e.d p.p.e.d y.d p.p.y.d e.d p.p.e.d y.d p.p.3.d e.d p.p.p.d y.d y.y.y.d y.d p.p.",
"d e.p.p.p.p.d e.p.p.y.3.d e.p.p.p.p.d y.y.y.3.y.d e.p.p.p.p.d y.p.p.y.3.d y.p.p.p.p.d y.p.p.y.y.d e.p.p.e.e.d y.p.p.y.y.d e.p.p.",
"p.d y.y.e.d y.d p.e.y.d p.d y.y.e.d e.d p.p.y.d y.d y.y.e.d y.d y.3.y.d p.d y.y.y.d y.d p.p.y.d p.d y.y.e.d p.d p.p.y.d p.d y.y.",
"p.p.d p.d e.y.p.d p.d y.p.p.d p.d e.e.e.d ! y E P P p ! d e.y.y.d p.d y.p.p.d p.d e.y.p.d p.d 3.p.p.d p.d e.p.p.d p.d W ! p.d p.",
"p.p.W # p.p.p.p.! # p.y.p.! W # p.y.p.e.e.p     : . X p ! p.3.p.! # p.y.p.p.W # p.p.p.p.W # 4.p.p.p.W # p.p.p.p.e.d Q E Q Q Q p ",
"p.p.i W d p.p.! i ! d p.p.! i W d p.p.p.d E   _ ].) . E i p.p.! i ! d p.p.! i W d p.p.! i ! d e.p.! i W d p.p.p.d Q X . ~ . o E ",
"e.d p.p.p.d Q i ! p.p.d ! i ! p.p.d W i p.P : ].` '.~ Q ! d W i ! p.p.d ! i t.p.p.d W i ! 4.p.d ! i ! p.p.d W i p.P . ) '.( . Q ",
"d p.p.! ! Q # W p.p.y.p.# ! p.p.3.p.# W p.P . ) '.( . Q p.p.# W 4.p.y.p.# ! p.p.p.p.# W p.e.p.p.# ! p.p.p.p.# W p.P : ].` '.~ E ",
"! p Q Q E y W d p.p.3.d p.d p.y.e.d p.d p.Q X . ~ . o Q p.d p.d p.p.y.d p.d p.y.e.d p.d p.y.y.d p.d p.y.y.d p.d p.^   _ [.) . ^ ",
"Q o . ~ . X Q p.d p.d y.p.p.d p.d e.y.p.d ! p E Q Q p Q d e.y.p.d p.d y.p.p.d W d ! W W d p.d y.p.p.d 4.d y.y.p.d E     : . X E ",
"Q . ( '.) . P p.W # p.y.p.! W # p.p.e.p.! # ! W ! ! Q # p.p.p.p.! # p.y.p.! E O Q Q E E Q # p.y.p.p.W # 4.p.p.p.W # E E P P Q d ",
"E ~ '.` [.: P p.i ! d p.p.! i W d p.p.! i ! d p.p.! i W d p.p.p.i ! d p.p.Q r X . ~ . X r ! d p.p.! i W d p.p.! i ! d p.p.p.d y.",
"/ . ) ]._   E d p.p.y.d ! i ! p.p.d W i ! p.p.d ! i ! p.p.d 3.d p.p.p.d ! p E . ( '.) . P p.p.d ! i ! p.p.d W i W p.p.d ! i p.y.",
"u X . :     y y.p.p.y.p.# ! p.p.p.p.# W p.p.y.p.# ! p.p.p.e.d y.p.p.y.p.# Q E ~ '.` ].: P p.y.p.# ! p.p.e.p.# W p.e.y.p.# ! p.y.",
"! p P P E p t.d p.p.y.d p.d p.e.e.d p.d p.p.y.d p.d p.y.e.d y.d p.p.y.d p.i E . ) [._   P p.y.d p.d p.y.e.d p.d p.p.y.d p.d y.y.",
"p.p.d p.d e.y.y.d e.d p.p.4.d p.d y.y.p.d p.d y.p.p.d p.d e.y.p.d ! d p.p.t.r X . :     r p.d y.p.p.d p.d p.p.p.d p.d y.y.y.d y.",
"p.p.W # p.p.e.e.e.d W W ! ! Q # p.p.p.p.! # p.y.p.p.W # p.p.y.! Q # Q W p.p.! p P P P E Q # p.y.p.p.4.d ! ! ! p.p.d 3.y.p.p.y.d ",
"p.! i W d p.p.p.d p.t a a t y Q d p.p.t.i ! d p.p.! i W d p.p.W e t t t 4.p.d y.d p.p.! i ! d 4.p.! 4.t a a t p.d p.d p.p.p.d y.",
"Q i ! p.p.d Q p Q t z ^.Y.s t Q p.d W i ! p.p.d ! i ! p.p.d W t s Y.Y.z t i p.p.p.d W i ! p.p.d Q Q t s ^.^.a t t.p.p.d ! i p.p.",
"# ! p.e.p.! # Q e a Q._._.Q.a t 4.! # Q W p.p.p.# ! p.p.p.4.t a Q._.).(.a t 4.p.p.p.# W p.p.p.p.# e a !.).).!.a t p.p.p.# ! p.p.",
"p.d p.p.e.d Q e a T. Xh h  X}.a t i ! d Q Q p.d p.d p.p.W t a W. Xh h  X}.a t ! p.d p.d p.p.p.d t a T. Xw w {.}.a t 4.d p.d p.y.",
"p.p.d p.d p.t t |.9 | 3 5 w 9 }.a t p.p.# Q d y.p.p.d y.t t }.9 | 3 5 w 9 |.t t d e.y.p.d ! d t a T.0 | 5 5 l 9 |.a t p.p.p.d y.",
"p.4.W # p.a.a E.q 5 3 3 3 5 5 q E.a a.d p.d p.y.p.p.y.f a E.q 5 5 3 3 5 5 q E.a y.p.e.p.! # ! t }.9 4 4 3 3 3 4 9 }.t W p.p.y.d ",
"! ! i W d 6.s T.6 , 5 3 3 5 , q W.s f y.p.e.d p.p.p.d 6.s T.6 , 5 3 3 5 , q W.s f p.p.! i Q i t  Xh 4 3 3 3 3 4 h  Xt W ! 4.d y.",
"Q i ! p.p.f s T.6 , 5 3 3 5 , q W.s a.p.p.p.y.d ! i p.a.s T.6 , 5 3 3 5 , q W.s a.d W i W W W t  Xh 3 3 3 3 3 4 l  Xt i Q i p.p.",
"# W p.p.p.a.s T.6 , 5 3 3 5 , q W.s a.p.p.p.y.p.# ! p.a.s T.6 , 5 3 3 5 , q W.s a.p.# W 4.4.4.t  Xh 4 3 3 3 3 4 l  Xt ! # W t.p.",
"! d p.y.e.f s T.6 , 5 3 3 5 , q W.s 6.y.p.p.y.d p.d p.6.s T.6 , 5 3 3 5 , q W.s r.d p.d p.p.W t  Xh 4 3 3 3 3 4 l  Xt i ! d p.y.",
"p.p.d p.d 6.z !.w 7 3 4 4 3 7 w !.z f p.p.p.d y.p.p.d 6.z !.w 7 3 4 4 3 7 w !.z f p.y.y.d p.d a  Xh 4 4 4 3 4 4 h  Xa 4.p.p.d t.",
"p.p.W # ! a z (.h g l h l l g h (.z a i Q i p.y.p.p.p.a z _.h g l h l l g h (.z a ! p.p.e.d t a /.k h h l h l h k /.a t p.p.W # ",
"p.! i Q i t (._./..X.X.X.X.X.X/._.Y.a W # ! d p.p.t.i a Y._./..X.X.X.X.X.X/._.Y.t W ! p.d y.t E.(.`..X.X.X.X.X.X`.(.E.t t.! i Q ",
"Q i ! ! ! t R.(.Q.~.Q.Q.~.~.~.Q.Q.R.t d p.p.y.d ! i Q t R.Q.Q.~.~.~.~.~.~.Q.Y.R.t i Q i p.y.t U.Q.Q.Q.Q.!.~.~.Q.Q.Q.U.t W i ! ! ",
"# W p.p.! t a s s s s s s s s s s a t p.4.y.y.p.# Q W t a s s s s s s s s s s a t W # W p.y.t a s s s s s s s s s s a t # ! p.p.",
"t.d p.p.p.d a.f a.6.r.f 6.f 6.6.r.f y.d p.p.y.d p.d p.y.a.f 6.f a.a.6.f a.f 6.a.y.d p.d p.p.y.f a.f 6.6.6.f 6.f a.a.6.d p.d p.y.",
"p.p.d p.d e.y.p.d p.d e.p.p.d p.d e.3.p.d p.d y.p.p.d p.d e.y.p.d p.d y.p.p.d p.d e.y.p.d p.d y.p.p.d p.d e.y.p.d p.d y.p.p.d y.",
"p.p.W # p.p.p.p.! # p.y.p.p.W # p.p.p.p.! # p.y.p.4.W # p.p.p.p.! # p.y.p.p.! # p.e.p.p.! # p.y.p.4.W # p.p.p.p.! # p.y.e.e.y.d ",
"p.! i W d p.p.t.i ! d y.p.W i W d p.p.p.i ! d y.p.! i W d p.p.! i ! d y.p.! i W d p.p.W i ! d p.p.W i W d p.p.! i ! d p.p.p.d y.",
"Q i ! p.e.d W i ! p.y.d ! i W p.p.d e.d p.p.y.d ! i ! p.p.d ! i ! p.y.d ! i W p.p.d W i W p.p.d ! i W p.p.d W i ! p.p.d ! i p.e.",
"# ! p.p.p.p.# W 4.p.y.p.# ! p.p.p.e.d y.p.p.y.p.# ! p.e.p.p.# W 4.e.y.p.# ! p.p.p.p.# W p.p.y.p.# ! p.p.e.p.# W p.p.y.p.# ! p.e.",
"p.d e.y.e.d p.d p.e.p.d p.d e.p.e.d e.d p.p.y.d p.d e.y.e.d p.d p.p.y.d p.d p.y.e.d p.d p.p.y.d p.d e.y.e.d p.d p.y.y.d p.d p.y.",
"p.p.d p.d e.y.p.d p.d p.p.p.d p.d e.y.p.d p.d y.p.p.d p.d e.y.p.d p.d y.p.p.d p.d e.y.p.d p.d y.p.p.d p.d y.y.p.d p.d y.p.p.d p.",
"p.p.W # p.p.p.p.e.d y.y.p.p.W # p.p.p.p.! # 4.y.p.p.W # p.p.p.p.! # p.3.p.p.W # p.p.p.p.! # 4.y.p.p.W # p.p.p.p.! # p.3.p.p.W # ",
"t.! i W d p.! ! d e.d p.p.W y W d p.p.! i W d p.p.! i W d p.p.! i ! d p.p.W i W d p.p.! i W d p.p.! i W d p.p.! i ! d p.p.W i Q ",
"Q i W p.p.d Q i p.p.y.d ! i W p.p.d W i ! p.p.d ! i W p.p.d W i ! p.p.d W i ! p.p.d W i ! p.p.d ! i W p.p.d W i ! p.p.d ! i W t.",
"# W p.p.e.p.# W p.p.y.p.# ! p.p.p.p.# W p.p.y.p.# ! p.e.e.p.# W p.p.p.p.# ! p.e.y.p.# W p.p.y.p.# ! p.y.e.p.# W p.p.y.p.# ! p.p.",
"p.d p.y.e.d p.d p.p.y.d p.d p.y.e.d p.d p.p.y.d p.d p.e.e.d p.d p.p.y.d p.d p.y.e.d p.d p.p.y.d p.d p.y.y.d p.d p.p.y.d p.d p.y.",
"p.p.d y.d e.p.p.d p.d y.p.p.d p.d e.y.p.d p.d y.p.p.d p.d e.y.p.d p.d y.p.e.d p.d e.p.p.d p.d y.p.p.d p.d y.y.p.d p.d y.p.e.d p.",
"p.p.y.d p.p.p.p.e.d e.e.y.p.W # p.e.p.p.! # p.y.e.p.W # p.p.p.p.! # p.y.p.p.W # p.p.p.p.! # p.y.p.p.W # p.p.p.p.! # p.y.p.p.W # ",
"p.p.d y.d p.p.p.d e.d p.p.! i W d p.p.! i ! d p.p.! i W d p.p.W i ! d p.p.! i Q d p.! ! i ! d p.p.! i W d p.p.! i ! d p.p.! i Q ",
"Q i 4.e.y.d W i p.p.p.d ! i ! p.p.d W i ! p.p.d ! i ! p.p.d W i W p.p.d ! i ! ! p.d Q i ! p.p.d ! i t.p.p.d W i ! p.p.d ! i ! ! ",
"$ W W p.4.4.@ W W p.t.4.# Q t.! 4.W # Q t.p.p.! # W W ! W Q $ W W p.p.p.$ W W ! p.4.@ Q W ! p.W # W W p.p.4.# Q Q ! p.4.# Q 4.t.",
"& < $ # - @ $ < @ # 1 $ $ - # @ - @ @ # 1 $ # # $ 1 # # O O & & $ # # $ < & $ # 1 $ @ ; @ # # # $ 1 # # $ 1 # O O O 1 % # # $ 1 ",
"C.8 I K $ R x b.I I T Y Y x U K @ J K U Z Z I I Y T U L O H n.5.K K U I V.1.Y I Y I $ J c K K U Z Z I I I I I K H @ I Z M M Z Z ",
"2.+.M.$.8 Y O.o.M.7.9.+.x.H.#.N.& I S A N o.j.-.S.+.$.S & U A o.A A M.S.;.<.g.H.{ w.& I +.7.$.b A o.j.j.v M.+.7.Y 2 $.v A A v #.",
"G.j #.#.> w.@...' :.' :.k.} ;.o.2 Z N P.o.@.l.s.} g.I.o.2 Z o...B @.;.<.l.,.s.J.>.G.2 T -.J.<.8.o.V ,.,.;.#.<.F.w.= #.0.o.V 8.;.",
"j j #.s > w.;.f.@.V z S.#.z ..o.% Z A %...@.;.D.;.;...o.% I S.,.,.h.@.B l.,.;. .;.$.* I -.s.] j.o.V A.;.' 8...o.I * A V @.I.;.A.",
"V.1.S S 8 1.#.@.o.S S D O.A o.A % K C o.m.O.$.O.#.0.o.A % I 2.g.>.S.A S #.M.A A m.O.$ U M.g.-.M.S A $.$.#.o.o.C K % Z A o.o.O.O.",
"$ $ @ $ & = = 2 & $ @ @ $ 2 & & & $ % % & & $ 1 $ % % % 2 = & = > 8 $ @ $ % % % * 2 $ $ * n & $ - $ & & & 2 % % $ 1 & & % % % % ",
"K K K c I 5.Y Y I v.@ H U T q.1.Y 5.I U v.I $ J K Z U I q.1.x v.5.I H O L M M U Z T n.I Z Z M K @ H R b.Z Z I I T Z n.I U U I I ",
"O.v S.7.B.+.G.[ 9.$.& U m O.k.x.G.+.#.o.N Z & U O.m.[ 7.#.#.A A A S K % C G m A O.$.$.$.@.0.A C # K B.#.o.o.H.{ #.o.o.o.M.+.-.S.",
"@.8.<.>.j -.-.g.;.$.2 Z o.;.J.d.] D.<.h.@.A 1 Z O.;.g.] D.;.;. .o.N I 1 *.%.%.o.8.' ' D.;.=.B A % I -.D.....k.k.D...&...h.] l.,.",
"o.V #.G.F.g.D.#.s a $ I #.<.<.;.@.@.h.<.;.o.% U o.A.@.@.l.s.K.c.F.M.U % G %.V m.;.,.,.l.h. .%.A 2 T -.h.@.X.D.;.o.B P.@.;.A.....",
"F o.s [ -.] ;.#.n I @ I S.l.' P.&...F.] D.o.% M o.@.B @.z.d.L.Z.d.#.U % G %.@.#.;.l.J.<.<.@.&.*.* Y F.,.@.B @...o.%.@.;.=...&.%."
};
