/* XPM */
static char *a7bd1eb429fb4163edffdffcf14aec7fApKxQYhPbjf9YWDV[] = {
/* columns rows colors chars-per-pixel */
"64 64 243 2 ",
"   c #260134",
".  c #270235",
"X  c #270037",
"o  c #270236",
"O  c #280136",
"+  c #290136",
"@  c #280037",
"#  c #290038",
"$  c #280138",
"%  c #280039",
"&  c #2A0039",
"*  c #2A0139",
"=  c #290239",
"-  c #29003A",
";  c #28013A",
":  c #28003B",
">  c #2B003A",
",  c #2A003B",
"<  c #29003C",
"1  c #2B003C",
"2  c #2A003D",
"3  c #2B003D",
"4  c #29003E",
"5  c #2B003E",
"6  c #2C003C",
"7  c #2C003D",
"8  c #2C003E",
"9  c #2C003F",
"0  c #2E003F",
"q  c #310A3F",
"w  c #300B3F",
"e  c #310C3F",
"r  c #2E0041",
"t  c #2D0042",
"y  c #2E0042",
"u  c #2F0043",
"i  c #2E0044",
"p  c #2F0044",
"a  c #2F0045",
"s  c #300043",
"d  c #300045",
"f  c #310045",
"g  c #300046",
"h  c #320046",
"j  c #320941",
"k  c #320B40",
"l  c #320943",
"z  c #310A43",
"x  c #330A42",
"c  c #320B42",
"v  c #310C40",
"b  c #320D41",
"n  c #330A44",
"m  c #320B44",
"M  c #330A46",
"N  c #350944",
"B  c #340845",
"V  c #350946",
"C  c #360846",
"Z  c #300048",
"A  c #320048",
"S  c #330048",
"D  c #33004A",
"F  c #370648",
"G  c #37054A",
"H  c #35004C",
"J  c #36004F",
"K  c #380749",
"L  c #38064B",
"P  c #39064B",
"I  c #39054D",
"U  c #38064D",
"Y  c #3A044F",
"T  c #350948",
"R  c #360848",
"E  c #360849",
"W  c #3C154A",
"Q  c #3C134F",
"!  c #3F134E",
"~  c #3E124F",
"^  c #3D144C",
"/  c #3C154C",
"(  c #3D144E",
")  c #3C154E",
"_  c #3E154F",
"`  c #3C0350",
"'  c #3A0450",
"]  c #3F1350",
"[  c #3E1251",
"{  c #3F1152",
"}  c #3D1352",
"|  c #3F1352",
" . c #3F1253",
".. c #3D1450",
"X. c #3E1551",
"o. c #410F54",
"O. c #420E56",
"+. c #430F57",
"@. c #430D59",
"#. c #430F59",
"$. c #440E59",
"%. c #440E5A",
"&. c #450F5A",
"*. c #460D5C",
"=. c #440E5C",
"-. c #470C5E",
";. c #460D5E",
":. c #411052",
">. c #421153",
",. c #401252",
"<. c #401253",
"1. c #411353",
"2. c #401451",
"3. c #401453",
"4. c #401155",
"5. c #421055",
"6. c #411354",
"7. c #401157",
"8. c #421057",
"9. c #411256",
"0. c #431158",
"q. c #441058",
"w. c #512C5F",
"e. c #470B61",
"r. c #470C60",
"t. c #601F79",
"y. c #611F79",
"u. c #611E7B",
"i. c #621C7E",
"p. c #611E7F",
"a. c #552767",
"s. c #522B60",
"d. c #522963",
"f. c #532A62",
"g. c #522B62",
"h. c #552A62",
"j. c #512C60",
"k. c #532C63",
"l. c #522965",
"z. c #532A64",
"x. c #522B64",
"c. c #532A66",
"v. c #552964",
"b. c #542865",
"n. c #542B65",
"m. c #552966",
"M. c #542867",
"N. c #562866",
"B. c #542B67",
"V. c #562A67",
"C. c #552768",
"Z. c #572668",
"A. c #57256A",
"S. c #55266A",
"D. c #56276B",
"F. c #57256C",
"G. c #582769",
"H. c #58256A",
"J. c #58266B",
"K. c #59266B",
"L. c #59236E",
"P. c #59236F",
"I. c #58246C",
"U. c #59256D",
"Y. c #5A256D",
"T. c #59276C",
"R. c #58266D",
"E. c #5A276C",
"W. c #58246E",
"Q. c #59256F",
"!. c #5A246F",
"~. c #59276E",
"^. c #5A266E",
"/. c #552968",
"(. c #552869",
"). c #562868",
"_. c #562869",
"`. c #572969",
"'. c #562A69",
"]. c #56296A",
"[. c #57296A",
"{. c #59286A",
"}. c #5B2271",
"|. c #5C2370",
" X c #5C2173",
".X c #5D2272",
"XX c #5C2372",
"oX c #592570",
"OX c #5A2470",
"+X c #5B2570",
"@X c #5B2571",
"#X c #5A2670",
"$X c #5A2472",
"%X c #5D2473",
"&X c #5C2175",
"*X c #5F2174",
"=X c #5E2075",
"-X c #5D2274",
";X c #5C2374",
":X c #5E2375",
">X c #5D2177",
",X c #5F2176",
"<X c #5F2177",
"1X c #5D2276",
"2X c #5E2377",
"3X c #5F2079",
"4X c #602077",
"5X c #602278",
"6X c #6A367E",
"7X c #641C80",
"8X c #722F8C",
"9X c #742E8E",
"0X c #752E8E",
"qX c #6C3382",
"wX c #6E3383",
"eX c #6B3580",
"rX c #6B3581",
"tX c #6A3680",
"yX c #6B3583",
"uX c #6D3481",
"iX c #6D3483",
"pX c #6D3284",
"aX c #6E3385",
"sX c #6F3187",
"dX c #6E3387",
"fX c #6D3485",
"gX c #6F3486",
"hX c #6E3288",
"jX c #703285",
"kX c #713187",
"lX c #703287",
"zX c #713188",
"xX c #723088",
"cX c #703288",
"vX c #713388",
"bX c #713389",
"nX c #723289",
"mX c #71308A",
"MX c #70318A",
"NX c #72308A",
"BX c #72318B",
"VX c #71308C",
"CX c #752D90",
/* pixels */
"J.OXt.i.9XNXOX_.m.g.O O ; ; m.x.c n _.U.D._.m.; < _.&.-.8X8XlXXXU._.( W ; ; _._.x.k.c c _._.m.; . ; _.<.<._.J.J.J.J.J.J.J.OX3Xi.",
"XX-XNXNX4XXXU._.< ; ( ( g.g.x.V g.x._.D._._.< m._.4.&.dX5X-XXXU.<.| ; ; g.x._._.n c x.g.a._.< x.g.x.<._._._.J.U.U.OXOXOXOXXXNXNX",
"7X9XNXOXJ._.< < | _.| ( w.e n m._._._._.; ; _.J.+.&.iXXXOXU._.| < < _.m.m.x.x.n _._.D._.m.< _._.| | _.J.J.J.U.OX-Xt.t.NXNXlXXXOX",
"CXNXXX0 < ; x.X._._.~ x.q v x._._._._.< ; x.J.&.-.yXOXU.<.| < ; x.m.a._.m.V n m._.U._._.< x._.<.<._.U.U.U.U.OXXXlXNXNXt.t.-XU.J.",
"U.U.0 ; m.| | | _.X.g.v c x._._.g.; < _.m.J.-.NXdXOXD.| ( ; _._._._._.m.V m._._.J._.; ; m._.<.<._.U.OX-X-X4XNXNXXXOXOXOXOXU.U.J.",
"m.; h.m.3.| _._.| ( v v x.m._.m.; ; m._.+.&.dX-XXXU.< < ; m._.J._._.m.V _._.D._._.m.; x.| 4.U.U.U.OXXXdXNXNXt.-XU.J.J.J.J.J.J._.",
"; x.m.<.<._.J._.3.g.n x.m.m.m.; m._._.4.-.dXU.J.<.; _.J.J.J.J._.x.n V _._._._._.; ; m.| <.U.-Xt.t.-XlXXXXXOXOXU.U.J.J.U.U.J._._.",
"; x.<.<._._._.| | n m.m.m.< ; m._.<.4.&.-XdX_.; ; m.J.D.J._._._.n m.m._.D._._.< x.( <.U.U.OXNXNXNXNX-XOXU.J.J.J.J.J.J.J.U.U.J.y ",
"x.| <.D._.| ( n n m.x.x.< m._._.<.4.U.XXiXU.< ; m._.J._.x.g.n n _._.J._.m.x.< x.~ <.U.XX-XdXXXOXOXU.U.U.J.J.J.J.J.J.J.U.-X-XZ iX",
"| | _._.| X.x.c x.m.; < m._._.4.4.U.XXiXU.0 ; x._.D._._.n c x.m._.J._._.; ; x.| 4.U.XXdXNX-XU.J.J.U.J.D.J.J.J.F.U.U.U.U.dXdXwX` ",
"<._._.| ( g.n x.x.; _._.D._.<.4.OXXXgXOX<.< _._._.m.g.n _._.J.J.J._.m.; m.| <.U.-XlXdXXXOXU.J.J.J.J.J.J.J.J.J.U.-X4XJ iXD.T T {.",
"_._.| x.q c x.m.; m._.D._.4.+.OXXXiXOX+.< m._._._.V c m._.J.J.J._._.< m.<.4.U.XXNX-XXXOXJ.J.J.J.J.J.D.J.J.U.U.OXlXlXdXU.T x.m.m.",
"| | x.c v g.g.; _._.D.D.| 4.-XNXdXOX<.< a._._._.V m._._.J.J.J._.m.; m.<.#.XX3XNXXXU.U.U.J.J.U.U.J.J.J.U.OXXX-XiXs J.a.T _._._._.",
"| m.n g.g.; ; m._.J.D.4.4.OXdX-XOX0.m.; _._.m.V _.a.{.J.J._._._.; x.<.U.XXdXNX-XU.J.J.J.J.J.U.U.J.J.U.U.XXwXdXh _.g.c x._.D.| | ",
"m.m.V x.g.; _._._._.<.+.-XdXXXU._.< 0 x.g.n V _._.J.J.J._.m.< ; ( | U.XXdXXXOXU.U.D.J.J.J.D.J.J.J.U.U.OXyXi {.m.c c ~ | <.| ; O ",
"m.V x.x.; m._.J._.4.+.OXlX-XU._.( ; x.x.n x.m._.D.J.J._._.< x.| <.U.XXdXXXOXU.J.J.D.J.J.J.J._.J.U.U.h yXU.J.V c ( ( _._._.m.; g.",
"V x.; ; _._.J.J.<.4.-XNXXXU._.| < x.g.c m._._.J.J.J._._.< m.| 4.-XNXlXXXU.U.J.J.J.J.D.D.J._.m._.Z dXiXU._.n | | _._._._.m.< _._.",
"m.x.; x.D.J.J.4.4.OXlX-XU._.| ; x.x.c m._.J.U.J.J._._.< m.<.q.XXNX4X-XOXU.J.J.J.J.J.D.D._._.0 y wX-XU.F n x._._._._._.< < x._.J.",
"x.; _._._._.<.+.-XNXXXU.J.<.; g.g.n m._.J.J.J.J._._.< m.| 4.-XNXXXU.U.U.U.D.J.J.J.J.D._.m.0 U.U.yXI T _._._.J._._._.< _._._.<.<.",
"; x._.D._.<.4.OXNX-XU._._.( ; g.c x._.D.J.J._.a.m.< _.<.U.OXlX-XU.J.J.J.J.J.J.J._._._._.< _.U.yXL <._._.J.J.J._._.< _.m._.<.| _.",
"0 m._.D.<.4.U.XXdX-XU._.W . g.c m._.J.J.J._.m.; ; | +.XXlXlXXXU.U.D.J.J.J.U.J._.m.m.; 0 U.U.yXI J.J.J.J.J.J._._.< m._._.<._.J.J.",
"m._._.<.<.J.XXdXXXU._.( . e c m.D.J.J._._._.< m.~ <.XXNX4X-XU.J.J.J.U.J._._._._.< < m.J.U.yXI D.J.J.J.J.J._._.< m._.4.<._.J.J.J.",
"_.| | <._.U.NX-XU.| ( O c m._._.J.J._._.< < _.| <.J.-XNXXXU.U.J.J.U.J._.m.x.; < _.J.U.U.6XL J.U.J.J.J.J.J._.; ; m.<.J.J.J.J.J.J.",
"| | _.D.U.XXdXXX<.O . c m.a.J.J.D._._.< x.X.<.J.U.XXNX-XU.J.J.J._._._._.< < m._.U.U.&.6XL _.J.J.D.J.J.J.D.m.; x.| _.J.J.J.J.J.U.",
"<._._.U.-XdX#.| O e c m._.J.J._.m.< ; m.| <.J.U.-XlXXXU.U.J.J._.m.x.; < D.J.U.XX-XiXL V _.J.J.J.J.J.J._.; ; X.| _.J.J.J.U.J.J.U.",
"_.<.4.#.r.gX_.; c g.m._._._._._.< x.m.<._.J.U.XXlX-XU.J._._._._.< ; m._.U.U.OXiXwXI _.m._.J.J.J.D.J._._.. ( _.J.D.J.J.{.J.J.J.J.",
"| 4.OXOXyXJ.; c m._._._._.m.m.; m.| <.D.D.U.-XNXXXU.U._.m.x.; < _._._.J.OXOX6X4.L J._._.J.U.J.J._._._.< ~ _.J.D.U.J.J.J.J.J.J.J.",
"_.D.OXiXy T c g._.U.D._._.< ; m.| <.U.F.OXXXNX-XU._._._.< ; m.m._.U.U.OXXXyXF T _._.J.J.J.J.D.J._.| < m._._.J.J.U.U.J.J.U.U.U.OX",
"x.< Z iXL _._._.J.D._._.< m._.4.<._.J.U.-XNXXXU._.m.; 0 a.D._._.J.U.-XlXyXL J.J.J.J.J.J.J.J.J._.| ~ < _._.J.J.J.J.J.J.U.XX-XNXNX",
"; m.yX' J._.J.J.J._._.< m.m._.4._.J.U.-XNX-XU._._.< m.m._.J.U.U.U.OXdX-.I _.J.J.J.J.J.J.J.J.D.<.m.< _._.J.J.J.J.U.U.U.XXXXlX4Xt.",
"O m.I OXJ.D.J.J.J._.m.; _._.<.D.J.U.-Xt.NXXXJ._.< m._._.J.U.OX-X-XgX4.T _.J.U.U.J.J.U.D._.| 4._.< x._.J.J.J.J.U.OX-X-XNXlXXXXXOX",
"m.T 6XU.U.J.J._._._.; m._.<.<.J.U.XXNXNXXXU._.< _._.J.J.U.U.XXdXdX#.T m._.U.F.D.J.J.D._.<.<._._.< m._.J.J.U.U.OXXXdXNX-X-XOXU.J.",
"L 6XiXXXU.J._._.< < _._._.<.J.U.-XNX}.U.J._.< _._.J.J.U.XXXXiX&.D.T _._.J.J.J.J.J.J._.<.D._.m.< _._.J.J.J.U.-XNXNXXXXXU.U.U.J.J.",
"U.U.XXOXJ._._.; x.x._.<.<.J.U.OX-XlXU._.m.< _._.U.U.OXXX-XwX&.4.V x._.J.J.J.J.D.J.J.<.<._._.< m._.J.J.U.U.XXNX-X-XOXU.J.J.J.J.D.",
"U.U.U.J._._.< _.m._.4.<.J.U.OXXXgXOX_.; < _._.U.OX-X3XNXdX&.J.V _._.J.U.J.J.J.J._.<.D._.x.< _._.J.J.J.U.-XlXXXU.U.U.J.J.J.J.J.J.",
"J.J._._.m.< m._._.<.<.J.U.U.XXiXU.y < m.m._.J.U.-XNXNX-XOX4.V m._.J.J.J.D.J.J.J.<._._._.x.< _.J.U.U.U.XXlX-XU.U.J.J.J.J.J.J.J.4.",
"J._.m.m.0 _._._.<._.J.U.OXXXiXU.y _._._._.J.P.-Xt.NXOX4.| n _._.J.J.J.J.J.J._.<.J._._._.< m._.U.OX-XNXNXXXU.J.J.U.J.J.J._._.<.<.",
"_._.< < m.a.D.4._._.J.U.XXdXOXy _._.J.U.U.U.XXdXNX-X4.x.c x.D.J.J.J.J.J.J.J.<._._._._.< _._.J.U.-XNXt.-XU.J.J.J.J.J.J.J._.<.| m.",
"x.; _._._._.4.J.U.J.J.U.-XdXy _._.J.J.U.OXXXdXXXOX4.m.n m._.J.J.D.J.J.J._.<.J._._._.< _._.J.U.XXNXNXXXU.J.J.J.J._._._.<.<.| x.. ",
"; x._.J.<.<.J.J.J.J.U.OXwXh J._.U.U.U.P.XXdXXXU.<.m.c m._.J.J.J.J.J.J.+.<._.J._._.< _._.U.OX-XlX4X-XU.J.J.J.J.J._.<.<.<._.x.; . ",
"< m.<.<.<._.J.J.J.U.-XiXy J.J.U.OX-XNXNXlXXXU.<.x.n _._.J.U.J.J.J.J.<.J.J.J.J._.; x._.U.OX-XNXNXXXU.J.J.J.J.J.<.<.<._._.x.; m.| ",
"_.<.<._._._.J.U.OXXXdXZ U.J.U.OXXXdX4X-X-X&.<.m.n x._.J.F.U.U.J.J.J.<.J.J.J._._.< m._.U.-XNXt.-XP.J.J.J.J.J.<.D._.m.m.< ; x._.4.",
"<.<.{.J.J.J.J.OXt.8Xh U.-X4Xt.NXlXXXXXU.+._.m.n _._.J.U.J.J.U.J.4.<.J.J.J._.m.; _._.J.U.-XNXXXU.U.J._.<.<.<.J._.g.O ; ; x.| <.J.",
"_.J.U.J.D.U.U.-X8XVXXXOXlXNXNX-X-XOXU.4._._.x.n _.U.J.J.J.J.U.4.U.J.J.J._._.; m._.U.U.%XlX-XU.J.J._.<.<._._._.m.O O x.m.| | U.U.",
"J.J.J.J.J.OX-XNXh OX-XlXXXOXOXU.+.4.4._._.m.V m._.J.J.D._._.4.J.J.J.J._.m.< _._.J.U.-XNXXXU.J.J._.<._._.m.x.; ; m._._._.<._.J.J.",
"J.J.J.J.U.P.4XNXOXU.lX-XU.J.J.4._._._._.m.V m._.J.J.J.J._.<.J.D.J.J.J._.< x._.U.U.XXt.NXU.J.J.<.| | _._.< ; m.m._.D.<.<._._.J.J.",
"J.J.J.U.OXXXlX-X-XlXXXU.J._._.<.D._.m.g.g.n _.J.U.J._.D.4._.J.J.J.J.m.m.< _._.U.-XNXNX}.U._.<.<.x.x.; 0 _._._._._.<.4.J.J.J.D.D.",
"J.U.U.XXXXdX-X-XNX-XU.J._.| | m._._.n c c x._.J.J.J.<.<._._.J.J.J._.< ; _._.U.OX4XNXXXU._.3.| _.< ; m.m._.J.J.D.<.<.J.J.J.J.D.D.",
"J.U.-X4XlX-Xt.NXXXU.U.<.<._._.m.g.n c m._._.U.J._.<.4.J.J.J.J.J._._.< _._.F.OX%XlXXXU._.( g.; < _.D._._._._._.<.J.J.J.J.J.J.J.J.",
"U.XXNX8X4X-XNX-XU.J._.<.J._.m.c n x.m._.J.J.J.J.<.J.J.J.J.J.J._.m.< _._.J.U.-XdXXXU.<.< ; ; m.m.D.J.J.J._.<.<.J.J.J.J.J.J.J.J.J.",
"XXXXlX4Xt.NXXXU.J.<.4.J.J._.g.v m._._.{.J.J._.<.J.U.D.J.U.J._._.< _._.J.J.OXNX-XU._.< _._._._._.J.J.D.<.<.<.J.J.J.J.J.J.J.J._._.",
"-XlX-X-XNX-XU.J.<._.J.J._.m.v c _.J.J.J.J._.<.J.J.J.J.J.J._._.< _._.J.U.OXXXhX-X0 < _._.D.J.J.J.J.J.<.<._.D.J.U.J.D.J._._._._.0 ",
"NXJ t.NXXXU.J.<.J.J.J._.x.c c m._.J.J.J.<.<._.J.J.J.J.J._.m.; ; _.J.J.OXNXNXi 0 _.3._.D.J.J.J.J._.<.J.J.J.J.J.J.J.J._._.x.< < m.",
"lX-XVX-XU.<.<._.D.J.J._.x.c m.a._.J.J._.<._.J.D.J.J.J._._.< m.m.a.J.U.XXdXZ _.X.<._.J.J.J.J.J.+.4._.U.J.J.D.J._._._.m.; < x._._.",
"s P.dX-X+._.J.J.J.J._.m.V m._._._._.| <._.J.J.J.U.J._._.< m._._._.J.XXgXy 0 _.<._.J.J.J._.<.<.<.J.J.J.J.J.J._.m.g.O ; ; _._._.D.",
"h yXXX&.J._.J.D.D._.x.c m._._.J.<.<._._.J.J.J.J.J.J._.< _._.D.J.J.h dXh _.x.<._.J.J.J._.| | _._.J.J.D.J._._._.; ; . x.m._.J.J.J.",
"NX-X&.U.J.J.J.U._.m.q c _._._.<.<._.D.J.D.D.J.J._._.< _._._._.U.J NXXXU._.<._.J.D.D.<.| | _.D.J.J.U.J._.m.x.; ; m._._._.J.J.J.J.",
"VXe.U.J.J.J.J._.m.c v g._.J.<._._._.J.J.D.D.J._._.< _._.D._._.i NXNXOXJ.<._.U.J.D.D.<._._._.J.J.J.J._._.; ; x.m._.J.J.J.J.J.J.J.",
"dX-.U.J.J.J.J._.c v x._._.<.J.J.J.J.D.J.J.J._._.< _._._.m._.y XXlX-XU.J.4.D.J.J._.<.J.J.J.J.J.J.J._.; ; ; m._._.J.J.J.J.J.J.J._.",
"OXOXU.U.J._._.x.v k._.<.<._.J.J.J.J.J.U.J._._.< m.m._._.< < OXdXXXOXU.4.D.D.J.J.| D.J.J.J.J.J.J._.m.; x.m._.J.J.J.J.J.J.U.J.<.<.",
"U.U.J.J._.m.c v x._.4.J.J.J.J.J.J.J.J.J._._.< _.m.x.O ; _.U.lX-XOXU.4._.J.J._.<.J.J.J.J.U.U.J._.x.; _._._.J.J.U.J.J.J.J.{.<.4.J.",
"D.J.J._.m.c v g.m.<.J.F.J.J.J.J.J.J.D._._.< _.m.x.; ; m.U.}.NX-XU.J.<.D.J.J.<._.J.J.J.J.U.U.J._.; ; _.U.J.J.U.J.J.J.J.J.<._.J.J.",
"D.J.J._.x.c m._.| | D.J.J.J.J.J.J.J._._.< m._.x.O O m.U.-XlXXXU.U.J.+.J.J.J.4.J.J.U.U.J.J.J.D._.< m._.U.J.J.J.J.D._._.<.J.J.J.J.",
"J.J.J._.n g._.<.| m.D.D.J.J.J.J.J._._.< m.m.m.; O g._.U.t.NXOXD.D.J.J.J.J.U.J.J.J.J.J.J.J.J.D._._._.J.J.J.J.J.J._.<.<._.J.D.J.J."
};
