/* XPM */
static char *_9a1180341fc44deff9607c2cdec03f8rvLAMG0gqc6iJh6G[] = {
/* columns rows colors chars-per-pixel */
"64 64 21 1 ",
"  c #2E1B2E",
". c #2E1B2F",
"X c #2B1C2F",
"o c #2D1C2F",
"O c #311A2E",
"+ c #301B2E",
"@ c #301A2F",
"# c #2D1B31",
"$ c #2B1C31",
"% c #3E2B3E",
"& c #3E2B3F",
"* c #3B2C3F",
"= c #3D2C3F",
"- c #42293C",
"; c #42293E",
": c #412A3E",
"> c #402B3E",
", c #402A3F",
"< c #44283E",
"1 c #3D2B41",
"2 c #3B2C41",
/* pixels */
"X*2$X*2$X*2$X*2$X*2$X*2$X*2$X*2$X*2$X*2$X*2$X*2$X*2$X*2$X*2$X*2$",
".&&..&&..&&..&&..&&..&&..&&..&&..&&..&&..&&..&&..&&..&&..&&..&&.",
";;;;;;;;;;;;;;;;;;;;;;;;;;;;;;;;;;;;;;;;;;;;;;;;;;;;;;;;;;;;;;;;",
";;;;;;;;;;;;;;;;;;;;;;;;;;;;;;;;;;;;;;;;;;;;;;;;;;;;;;;;;;;;;;;;",
".&&..&&..&&..&&..&&..&&..&&..&&..&&..&&..&&..&&..&&..&&..&&..&&.",
".&&..&&..&&..&&..&&..&&..&&..&&..&&..&&..&&..&&..&&..&&..&&..&&.",
";;;;;;;;<<;;;;;;;;;;;;;;<<;;;;;;;;;;;;;;<<;;;;;;;;;;;;;;<<;;;;;;",
";;;;;;;;<<;;;;;;;;;;;;;;<<;;;;;;;;;;;;;;<<;;;;;;;;;;;;;;<<;;;;;;",
".&&..&&..&&..&&..&&.o&&..&&..&&.o&&..&&..&&..&&o.&&..&&..&&..&&.",
"o==oo==oo=1oo==oo==oo==oo=1oo==oo==oo==oo=1oo==oo==oo==oo=1oo==o",
".&;+o&;+.&;+.&;+.&;+.&;+.&;+.&;+.&;+.&;+.&;+.&=o.&;+o&;+.&;+.&;+",
";;;;;;;;;;;;;;;;;;;;;;;;;;;;;;;;;;;;;;;;;;;;;;;;;;;;;;;;;;;;;;;;",
";;;;=;;;;;;;==;;;;;;;;;;;;;;;;;;;;;;;;;;;;;;;;;;;;;;=;;;;;;;==;;",
"+;;++;;++;;++;;++;;++=;++;;++;;++=;++;;++;;++;;++;;++;;++;;++;;+",
"+;;++;;++;;++;;+o=;+o=;++;;++;;+o=;++;;+o;;++;;++;;++;;++;;++;;+",
";;;;=;;;;;;;=;;;>;;;=;;;;;;;=;;;=;;;;;;;=;;;;;;;;;;;=;;;;;;;=;;;",
";;;;;;;;;;;;;;;;;;;;;;;;;;;;;;;;;;;;;;;;;;;;;;;;;;;;;;;;;;;;;;;;",
".&;+.&;++;;+.&;+.&;+.&;++;;+.&;+.&;+.&;++;;+.&;+.&;+.&;++;;+.&;+",
"#=1oo==o#=1oo==o#=1oo==o#=1oo==o#=1oo==o#=1oo==o#=1oo==o#=1oo==o",
".&&..&&..&&..&&..&&..&&..&&..&&..&&..&&..&&..&&..&&..&&..&&..&&.",
";;;;;;;;;;;;;;;;;;;;;;;;;;;;;;;;;;;;;;;;;;;;;;;;;;;;;;;;;;;;;;;;",
";;;;;;;;;;;;;;;;;;;;;;;;;;;;;;;;;;;;;;;;;;;;;;;;;;;;;;;;;;;;;;;;",
".&&..&&..&&..&&..&&..&&..&&..&&..&&..&&..&&..&&..&&..&&..&&..&&.",
".&&..&&..&&..&&..&&..&&..&&..&&..&&..&&..&&..&&..&&..&&..&&..&&.",
";;;;;;;;;;;;;;;;;;;;;;;;;;;;;;;;;;;;;;;;;;;;;;;;;;;;;;;;;;;;;;;;",
";;;;;;;;;;;;;;;;;;;;;;;;;;;;;;;;;;;;;;;;;;;;;;;;;;;;;;;;;;;;;;;;",
".&&..&&..&&..&&..&&..&&..&&..&&..&&..&&..&&..&=o.&&..&&..&&..&&.",
"o==oo==oo==oo==oo==oo==oo==oo==oo==oo==oo==oo==oo==oo==oo==oo==o",
".&;+.&;+.&;+.&;+.&;+.&;+.&;+.&;+.==+.&;+.&;+.&;+.&;+.&;+.=>+.&=+",
";;;;;;;;;;;;;;;;;;;;;;;;;;;;;;;;;;;;;;;;;;;;;;;;;;;;;;;;;;;;;;;;",
"=;;;;;;;;;;;=;;;;;;;=;;;;;;;;;;;=;;;;;;;;;;;>;;;=;;;;;;;;;;;;;;;",
"+;;++;;++;;++;;++;;++;;++;;++;;++;;++;;++;;++;;++;;++;;++;;++;;+",
"+;;++;;++;;++;;++;;++;;++;;++;;++;;++;;++;;++;;++;;++;;++;;++;;+",
";;;;;;;;;;;;;;;;;;;;;;;;;;;;;;;;;;;;;;;;;;;;;;;;;;;;;;;;;;;;;;;;",
";=;;;;;;;>;;;;;;;;;;;=;;;;;;;;;;;;;;;;;;;=;;;;;;;;;;;=;;;;;;;;;;",
".&>+.&;+.=;+.&;+.&;+.=;+.&;+.&;+.&;+.&;+.=;+.&;+.&;+.=;+.&;+.&;+",
"o==oo==oo==oo==oo==oo==oo==oo==oo==oo==oo==oo==oo==oo==oo==oo==o",
".&&..&&..&&.o=&..&&..&&..&&..&&..=&..&&..&&.o=&..&&..&&..&&..&&.",
";;;;;;;;;;;;;;;;;;;;;;;;;;;;;;;;;;;;;;;;;;;;;;;;;;;;;;;;;;;;;;;;",
";;;;;;;;;;;;;;;;;;;;;;;;;;;;;;;;;;;;;;;;;;;;;;;;;;;;;;;;;;;;;;;;",
".&&..&&..&&..&&..&&..&&..&&..&&..&&..&&..&&..&&..&&..&&..&&..&&.",
".&&..&&..&&..&&..&&..&&..&&..&&..&&..&&..&&..&&..&&..&&..&&..&&.",
";;;;;;;;;;;;;;;;;;;;;;;;;;;;;;;;;;;;;;;;;;;;;;;;;;;;;;;;;;;;;;;;",
";;;;;;;;;;;;;;;;;;;;;;;;;;;;;;;;;;;;;;;;;;;;;;;;;;;;;;;;;;;;;;;;",
".&&..&&..&&..&&..&&..&&..&&..&&..&&..&&..&&..&&..&&..&&..&&..&&.",
"#=1oo==o#=1oo==o#=1oo==o#=1oo==o#=1oo==o#=1oo==o#=1oo==o#=1oo==o",
".&;+.&;++;;+.&;+.&;+.&;++;;+.&;+.&;+.&;++;;+.&;+.&;+.&;++;;+.&;+",
";;;;;;;;;;;;;;;;;;;;;;;;;;;;;;;;;;;;;;;;;;;;;;;;;;;;;;;;;;;;;;;;",
";;;;=;;;;;;;;;;;;;;;>;;;;;;;;;;;;;;;=;;;;;;;;;;;;;;;>;;;;;;;;;;;",
"+;;++;;++;;+o=;++;;++;;++;;+o=;++;;++;;++;;+o=;++;;++;;++;;+o=;+",
"+;;++;;++;;+o=;++;;++;;++;;+o=;++;;++;;++;;+o=;++;;++;;++;;+o=;+",
";;;;;;;;;;;;=;;;;;;;;;;;;;;;=;;;;;;;;;;;;;;;=;;;;;;;;;;;;;;;=;;;",
";;;;;;;;;;;;;;;;;;;;;;;;;;;;;;;;;;;;;;;;;;;;;;;;;;;;;;;;;;;;;;;;",
".&;+.=;+.&;+.&;+.&;+.=;+.&;+.&;+.&;+.=;+.&;+.&;+.&;+.=;+.&;+.&;+",
"o==oo==oo=1oo==oo==oo==oo=1oo==oo==oo==oo=1oo==oo==oo==oo=1oo==o",
".&&..==o.&&..&&..&&..==o.&&..&&..&&..==o.&&..&&..&&..==o.&&..&&.",
";;;;;;;;<<;;;;;;;;;;;;;;<<;;;;;;;;;;;;;;<<;;;;;;;;;;;;;;<<;;;;;;",
";;;;;;;;<<;;;;;;;;;;;;;;<<;;;;;;;;;;;;;;<<;;;;;;;;;;;;;;<<;;;;;;",
".&&..&&..&&..&&..&&..&&..&&..&&..&&..&&..&&..&&..&&..&&..&&..&&.",
".&&..&&..&&..&&..&&..&&..&&..&&..&&..&&..&&..&&..&&..&&..&&..&&.",
";;;;;;;;;;;;;;;;;;;;;;;;;;;;;;;;;;;;;;;;;;;;;;;;;;;;;;;;;;;;;;;;",
";;;;;;;;;;;;;;;;;;;;;;;;;;;;;;;;;;;;;;;;;;;;;;;;;;;;;;;;;;;;;;;;",
".&&..&&..&&..&&..&&..&&..&&..&&..&&..&&..&&..&&..&&..&&..&&..&&.",
"X*2$X*2$X*2$X*2$X*2$X*2$X*2$X*2$X*2$X*2$X*2$X*2$X*2$X*2$X*2$X*2$"
};
