/* XPM */
static char *skydungeon_xpm[] = {
/* columns rows colors chars-per-pixel */
"64 64 183 2 ",
"   c #0A000B",
".  c #0A000D",
"X  c #0B000D",
"o  c #09000E",
"O  c #0A000E",
"+  c #0A000F",
"@  c #0B000F",
"#  c #0B0010",
"$  c #0B0012",
"%  c #0C0010",
"&  c #0C0012",
"*  c #0C0014",
"=  c #17051D",
"-  c #15061D",
";  c #15051F",
":  c #17051F",
">  c #170420",
",  c #170422",
"<  c #180322",
"1  c #180420",
"2  c #180521",
"3  c #180620",
"4  c #190125",
"5  c #1A0025",
"6  c #180324",
"7  c #1A0224",
"8  c #1B0126",
"9  c #1A0226",
"0  c #1B0128",
"q  c #1C0028",
"w  c #1C0029",
"e  c #1E0029",
"r  c #2B0A37",
"t  c #2A0B37",
"y  c #2C073B",
"u  c #2E073C",
"i  c #2F063E",
"p  c #2E073E",
"a  c #2B0A39",
"s  c #2B093B",
"d  c #2D0939",
"f  c #2D083B",
"g  c #2C0B3A",
"h  c #2D083C",
"j  c #2F0640",
"k  c #2F0642",
"l  c #310343",
"z  c #310540",
"x  c #300741",
"c  c #310542",
"v  c #310344",
"b  c #340345",
"n  c #340247",
"m  c #310544",
"M  c #320444",
"N  c #320445",
"B  c #350348",
"V  c #3F0D54",
"C  c #420956",
"Z  c #410B56",
"A  c #410B57",
"S  c #430A57",
"D  c #400C54",
"F  c #400C56",
"G  c #410D57",
"H  c #47075E",
"J  c #420958",
"K  c #410B59",
"L  c #430A59",
"P  c #43085A",
"I  c #430A5B",
"U  c #44095B",
"Y  c #440B5A",
"T  c #44095D",
"R  c #46085D",
"E  c #46085E",
"W  c #47095F",
"Q  c #470461",
"!  c #470660",
"~  c #460760",
"^  c #470463",
"/  c #470662",
"(  c #470664",
")  c #490363",
"_  c #480562",
"`  c #4A0562",
"'  c #490663",
"]  c #480763",
"[  c #490365",
"{  c #4B0366",
"}  c #4B0367",
"|  c #4D0267",
" . c #480564",
".. c #4A0464",
"X. c #4A0466",
"o. c #4A0467",
"O. c #4B0369",
"+. c #4C0168",
"@. c #4D0269",
"#. c #4C016A",
"$. c #4E016B",
"%. c #4D026B",
"&. c #4D006D",
"*. c #4D016D",
"=. c #4E006D",
"-. c #4E006E",
";. c #4F006E",
":. c #4F0070",
">. c #510070",
",. c #5E0B7D",
"<. c #5F0A7F",
"1. c #5E0B7F",
"2. c #5C0C7D",
"3. c #5C0C7F",
"4. c #5F0A81",
"5. c #5E0B81",
"6. c #5F0A83",
"7. c #610783",
"8. c #610685",
"9. c #620587",
"0. c #610687",
"q. c #620786",
"w. c #630786",
"e. c #640587",
"r. c #600883",
"t. c #610983",
"y. c #610984",
"u. c #620884",
"i. c #630985",
"p. c #620A84",
"a. c #620A85",
"s. c #610886",
"d. c #630887",
"f. c #65038A",
"g. c #620589",
"h. c #630688",
"j. c #620788",
"k. c #63068A",
"l. c #640489",
"z. c #650688",
"x. c #64048A",
"c. c #65058A",
"v. c #65058B",
"b. c #66058A",
"n. c #66048B",
"m. c #64078B",
"M. c #65038C",
"N. c #67058C",
"B. c #66048D",
"V. c #66068C",
"C. c #67058E",
"Z. c #66048F",
"A. c #68038D",
"S. c #68038F",
"D. c #6F1D8B",
"F. c #6D1E8B",
"G. c #6F1A8F",
"H. c #6D1D8C",
"J. c #6F1D8C",
"K. c #6E1E8D",
"L. c #6D1D8E",
"P. c #6F1C8E",
"I. c #701C8C",
"U. c #701C8E",
"Y. c #701D8F",
"T. c #6F1A93",
"R. c #6F1C90",
"E. c #701B90",
"W. c #711993",
"Q. c #701B92",
"!. c #721A92",
"~. c #711C91",
"^. c #701D91",
"/. c #731995",
"(. c #701B94",
"). c #721A94",
"_. c #721A95",
"`. c #731897",
"'. c #741799",
"]. c #761799",
"[. c #731899",
"{. c #741998",
"}. c #75189A",
/* pixels */
"K.K.K.K.K.K.K.K.D.Y.).).[.h.c.B.B.c.c.[.).).K.K.K.K.K.K.K.K.K.K.K.K.K.K.K.K.K.K.K.K.).).'.h.c.B.B.c.c.[.).).K.K.K.K.K.K.K.K.K.K.",
"K.K.K.K.K.K.K.K.~.Q.7.h.h.h.B.B.B.B.c.h.h.r.Q.~.K.K.K.K.K.K.K.K.K.K.K.K.K.K.K.K.~.Q.q.q.h.h.h.h.h.h.h.h.h.u.Q.~.K.K.K.K.K.K.K.K.",
"K.K.K.K.K.K.R.Q.q.c.c.c.c.c.B.B.B.B.B.c.c.c.h.q.Q.K.K.K.D.D.K.K.K.K.K.K.K.K.R.).q.h.c.c.h.u.6.6.6.6.u.q.c.c.h.q.Q.K.K.K.K.K.K.K.",
"K.K.K.K.Y.Q.).q.c.B.c.c.h.q.q.u.u.q.q.h.c.c.B.c.q.).Q.Y.K.D.K.K.K.K.K.K.R.Q.).q.c.c.h.q.6.:.*.$.*.*.:.6.u.q.h.c.u.Q.Q.K.K.K.K.K.",
"K.K.K.K.Q.u.q.c.B.c.h.u.2.*.O. .} } $.1.u.h.c.B.c.h.h.).K.K.K.K.K.K.K.K.).h.h.h.h.u.1.$.} )  .] ( ( /  .$.2.u.h.h.h.q.).K.K.K.K.",
"K.K.K.Q.u.c.c.c.h.u.6.*.} / E U U E ] | *.6.u.h.B.B.c.q.Q.K.K.K.K.K.K.Q.h.c.c.h.6.*.} ] H U L L L L U E / } *.6.h.h.h.q.Q.K.K.K.",
"K.K.R.).e.c.M.h.1.$.} ] / E L A D A E ]  . .$.1.c.M.B.q.).K.K.K.K.K.R.).c.c.h.6.$./ / E A D M c c M D L E / / $.6.h.c.h.Q.K.K.K.",
"K.K.).q.c.c.h.6.$./ E U L A n M M M A L U E ] $.r.h.c.c.q.T.K.K.K.K.).q.c.c.r.*.] E L A n c f s s h c n A L U / *.6.h.c.q.Q.K.K.",
"K.R.q.c.B.h.1.$./ E L D v k u f s h k l D A E / $.1.h.B.c.h.R.K.K.G.q.c.B.q.$.] E A n k h t 0 7 7 q s u k n A E ] $.q.B.c.h.R.K.",
"K.Q.h.B.c.u.$.] E L n c u s q q 0 q t f k n L E ] $.u.c.B.h.).K.K.Q.c.f.c.6. .E A n u s q 7 < > > < 7 q s u n A E } 6.c.B.h.).K.",
").r.c.c.h.6.} E L n c s q 7 7 7 7 7 7 q s c n L E } 6.h.c.c.7.).T.u.c.c.r.*. .U D k f q 7 < > : : : < 7 q f c D U  .:.u.c.c.u.Q.",
").q.c.c.u.*. .L D k s q 7 1 1 : : 1 1 7 q s c D U  .*.u.c.c.q.).{.h.c.h.1.} / U M y q 7 1 : * # & & : 1 7 q y M U / O.2.h.c.h.{.",
"'.h.c.h.2.} / L M h q 7 1 : & . # & : 1 7 q u M L ] } 1.h.c.h.'.{.h.c.q.$./ E D k s 7 1 : # # . . . # : 1 7 s k D E / $.q.c.h.{.",
"c.c.c.q.*.] E A k t 7 1 : & .   . . & : 1 7 t k A E ] *.q.B.c.h.c.c.c.u.} L L B u q 7 1 & . . . . . . # 1 7 q u B L E  .u.B.c.h.",
"c.B.c.7.O.E L n h q 7 > & . . . . . . & > 7 q u M A E O.q.B.B.c.c.c.B.u.} U A n f q 7 : # . . . . . . # : 7 q f M A E  .u.B.B.c.",
"B.M.c.u.} U A M s 0 7 : # . . . . . . # : 7 q f M D U  .u.B.M.B.B.B.B.u. .E A n f q 7 : # . . . . . . # : 7 q f M A E  .u.B.B.B.",
"B.M.c.u.} U A M s 0 7 : # . . . . . . # : 7 q f M D U  .u.B.M.B.B.B.B.u. .E L n u q 7 1 & . . . . . . & 1 7 q u n L E  .u.B.B.B.",
"c.B.c.7.O.E L n h q 7 > & . . . . . . & > 7 q u M A E O.q.B.B.c.B.c.B.q.O./ E D k s 7 1 : # # . . . # : < 7 s k D E / $.q.B.B.B.",
"c.c.c.q.*.] E A k t 7 1 : & .   . . & : 1 7 t k A E ] *.q.B.c.h.c.c.c.h.2.} / L M u q 7 1 : * # & & : > 7 q h M L / } 2.h.c.c.h.",
"'.h.c.h.2.} / L M h q 7 1 : & . # & : 1 7 q u M L ] } 1.h.c.h.'.'.h.c.c.r.*. .U D c s q 7 < > : : : 7 7 q s c V L  .*.u.c.c.h.'.",
").q.c.c.u.*. .L D k s q 7 1 1 : : 1 1 7 q s c D U  .*.u.c.c.q.).).h.c.c.c.6. .E A n u s q 7 < > 1 < 7 q s u n A E  .6.c.c.c.h.).",
").r.c.c.h.6.} E L n c s q 7 7 7 7 7 7 q s c n L E } 6.h.c.c.7.).).u.c.B.B.q.*./ E A M k h t q 7 7 q s u k n A E ] $.q.B.B.c.u.).",
"K.Q.h.B.c.u.$.] E L n c u s q q 0 q t f k n L E ] $.u.c.B.h.).K.K.Q.h.B.B.c.r.*.] E L A M k h s s h c n A L E / *.6.h.B.B.h.Q.K.",
"K.R.q.c.B.h.1.$./ E L D v k u f s h k l D A E / $.1.h.B.c.h.R.K.K.R.q.c.B.c.h.6.$./ / E A V M M c M D L E / / $.6.h.c.c.c.q.R.K.",
"K.K.).q.c.c.h.6.$./ E U L A n M M M A L U E ] $.r.h.c.c.q.Q.K.K.K.K.).q.c.B.c.h.6.*.} ] E L L L L L U E / } *.6.h.c.B.c.q.Q.K.K.",
"K.K.R.).e.c.M.h.1.$.} ] / E L A D A E ]  . .$.1.c.M.B.q.).K.K.K.K.K.T.).h.c.M.c.h.u.1.$.} /  .] ]  .) } $.2.u.h.c.M.B.q.).K.K.K.",
"K.K.K.Q.u.c.c.c.h.u.6.*.} / E U U E ] | *.6.u.h.B.B.c.q.Q.K.K.K.K.K.K.Q.q.c.c.B.c.c.h.q.6.:.*.$.$.*.>.6.u.h.c.c.B.B.c.q.Q.K.K.K.",
"K.K.K.K.Q.u.q.c.B.c.h.u.2.*.O. .} } $.1.u.h.c.B.c.h.h.).K.K.K.K.K.K.K.K.).q.h.c.B.B.S.B.h.u.6.6.6.6.u.h.c.S.B.B.c.q.h.).R.K.K.K.",
"K.K.K.K.Y.Q.).q.c.B.c.c.h.q.q.u.u.q.q.h.c.c.B.c.q.).Q.Y.K.D.K.K.K.K.K.K.Y.Q.).q.c.B.B.B.B.c.h.h.h.h.c.B.B.B.B.c.q.Q.T.Y.K.K.K.K.",
"K.K.K.K.K.K.R.Q.q.c.c.c.c.c.B.B.B.B.B.c.c.c.h.q.Q.K.K.K.D.D.K.K.K.K.K.K.K.K.Q.Q.q.h.c.c.c.c.B.B.B.B.B.c.c.c.h.h.Q.K.K.K.K.K.K.K.",
"K.K.K.K.K.K.K.K.~.Q.7.h.h.h.B.B.B.B.c.h.h.r.Q.~.K.K.K.K.K.K.K.K.K.K.K.K.K.K.K.K.Q.Q.u.h.c.c.c.B.B.B.c.h.h.u.).R.K.K.K.K.D.D.K.K.",
"K.K.K.K.K.K.K.K.D.Y.).).[.h.c.B.B.c.c.[.).).K.K.K.K.K.K.K.K.K.K.K.K.K.K.K.K.D.D.K.K.).).'.c.c.B.B.c.c.[.).).K.K.K.K.K.K.K.K.K.K.",
"K.K.K.K.K.K.K.K.D.Y.).).[.h.c.B.B.c.c.[.).).K.K.K.K.K.K.K.K.K.K.K.K.K.K.K.K.K.K.K.K.).).'.c.c.B.B.c.c.[.).).K.K.K.K.K.K.K.K.K.K.",
"K.K.K.K.K.K.K.K.~.Q.7.h.h.h.B.B.B.B.c.h.h.r.Q.~.K.K.K.K.K.K.K.K.K.K.K.K.K.K.K.K.~.Q.q.q.h.h.h.h.h.h.h.h.h.u.Q.~.K.K.K.K.K.K.K.K.",
"K.K.K.K.K.K.R.Q.q.c.c.c.c.c.B.B.B.B.B.c.c.c.h.q.Q.K.K.K.D.D.K.K.K.K.K.K.K.K.R.).q.h.c.c.h.u.6.6.6.6.u.q.c.c.h.q.Q.K.K.K.K.K.K.K.",
"K.K.K.K.Y.Q.).q.c.B.c.c.h.q.q.u.u.q.q.h.c.c.B.c.q.).Q.Y.K.D.K.K.K.K.K.K.R.Q.).q.c.c.h.q.6.:.*.$.*.*.:.6.u.q.h.c.u.Q.Q.K.K.K.K.K.",
"K.K.K.K.Q.u.q.c.B.c.h.u.2.*.O. .} } $.1.u.h.c.B.c.h.h.).K.K.K.K.K.K.K.K.).h.h.h.h.u.1.$.} )  .] ( ( /  .$.2.u.h.h.h.q.).K.K.K.K.",
"K.K.K.Q.u.c.c.c.h.u.6.*.} / E U U E ] | *.6.u.h.B.B.c.q.Q.K.K.K.K.K.K.Q.h.c.c.h.6.*.} ] H U L L L L U E / } *.6.h.h.h.q.Q.K.K.K.",
"K.K.T.).e.c.M.h.1.$.} ] / E L A D A E ]  . .$.1.c.M.B.q.).K.K.K.K.K.T.).c.c.h.6.$./ / E A D M c c M D L E / / $.6.h.c.h.Q.K.K.K.",
"K.G.Q.q.c.c.h.6.$./ E U L A n M M M A L U E ] $.r.h.c.c.q.Q.K.K.K.K.).q.c.c.r.*.] E L A n c f s s h c n A L U / *.6.h.c.q.Q.K.K.",
"K.R.q.c.B.h.1.$./ E L D v k u f s h k l D A E / $.1.h.B.c.h.R.K.K.G.q.c.B.q.$.] E A n k h t 0 7 7 q s u k n A E ] $.q.B.c.h.R.K.",
"K.Q.h.B.c.u.$.] E L n c u s q q 0 q t f k n L E ] $.u.c.B.h.).K.K.Q.c.f.c.6. .E A n u s q 7 < > > < 7 q s u n A E } 6.c.B.h.).K.",
").r.c.c.h.6.} E L n c s q 7 7 7 7 7 7 q s c n L E } 6.h.c.c.7.).T.u.c.c.r.*. .U D k f q 7 < > : : : < 7 q f c D U  .:.u.c.c.u.Q.",
").q.c.c.u.*. .L D k s q 7 1 1 : : 1 1 7 q s c D U  .*.u.c.c.q.).{.h.c.h.1.} / U M y q 7 1 : * # & & : 1 7 q y M U / O.2.h.c.h.{.",
"'.h.c.h.2.} / L M h q 7 1 : & . # & : 1 7 q u M L ] } 1.h.c.h.'.{.h.c.q.$./ E D k s 7 1 : # # . . . # : 1 7 s k D E / $.q.c.h.{.",
"c.c.c.q.*.] E A k t 7 1 : & .   . . & : 1 7 t k A E ] *.q.B.c.h.c.c.c.u.} L L B u q 7 1 & . . . . . . # 1 7 q u B L E  .u.B.c.h.",
"c.B.c.7.O.E L n h q 7 > & . . . . . . & > 7 q u M A E O.q.B.B.c.c.c.B.u.} U A n f q 7 : # . . . . . . # : 7 q f M A E  .u.B.B.c.",
"B.M.c.u.} U A M s 0 7 : # . . . . . . # : 7 q f M D U  .u.B.M.B.B.B.B.u. .E A n f q 7 : # . . . . . . # : 7 q f M A E  .u.B.B.B.",
"B.M.c.u.} U A M s 0 7 : # . . . . . . # : 7 q f M D U  .u.B.M.B.B.B.B.u. .E L n u q 7 1 & . . . . . . & 1 7 q u n L E  .u.B.B.B.",
"c.B.c.7.O.E L n h q 7 > & . . . . . . & > 7 q u M A E O.q.B.B.c.B.c.B.q.O./ E D k s 7 1 : # # . . . # : < 7 s k D E / $.q.B.B.B.",
"c.c.c.q.*.] E A k t 7 1 : & .   . . & : 1 7 t k A E ] *.q.B.c.h.c.c.c.h.2.} / L M u q 7 1 : * # & & : > 7 q h M L / } 2.h.c.c.h.",
"'.h.c.h.2.} / L M h q 7 1 : & . # & : 1 7 q u M L ] } 1.h.c.h.'.'.h.c.c.r.*. .U D c s q 7 < > : : : 7 7 q s c V L  .*.u.c.c.h.'.",
").q.c.c.u.*. .L D k s q 7 1 1 : : 1 1 7 q s c D U  .*.u.c.c.q.).).h.c.c.c.6. .E A n u s q 7 < > 1 < 7 q s u n A E  .6.c.c.c.h.).",
").r.c.c.h.6.} E L n c s q 7 7 7 7 7 7 q s c n L E } 6.h.c.c.7.).).u.c.B.B.q.*./ E A M k h t q 7 7 q s u k n A E ] $.q.B.B.c.u.).",
"K.Q.h.B.c.u.$.] E L n c u s q q 0 q t f k n L E ] $.u.c.M.h.).K.K.Q.h.B.B.c.r.*.] E L A M k h s s h c n A L E / *.6.h.B.B.h.Q.K.",
"K.R.q.c.B.h.1.$./ E L D v k u f s h k l D A E / $.1.h.B.c.h.R.K.K.R.q.c.B.c.h.6.$./ / E A V M M c M D L E / / $.6.h.c.c.c.q.R.K.",
"K.K.).q.c.c.h.6.$./ E U L A n M M M A L U E ] $.r.h.c.c.q.Q.K.K.K.K.).q.c.B.c.h.6.*.} ] E L L L L L U E / } *.6.h.c.B.c.q.Q.K.K.",
"K.K.R.).e.c.M.h.1.$.} ] / E L A D A E ]  . .$.1.c.M.B.q.).K.K.K.K.K.R.).h.c.M.c.h.u.1.$.} /  .] ]  .) } $.2.u.h.c.M.B.q.).K.K.K.",
"K.K.K.Q.u.c.c.c.h.u.6.*.} / E U U E ] | *.6.u.h.B.B.c.q.Q.K.K.K.K.K.K.Q.q.c.c.B.c.c.h.q.6.:.*.$.$.*.>.6.u.h.c.c.B.B.c.q.T.K.K.K.",
"K.K.K.K.Q.u.q.c.B.c.h.u.2.*.O. .} } $.1.u.h.c.B.c.h.h.).K.K.K.K.K.K.K.K.).q.h.c.B.B.S.B.h.u.6.6.6.6.u.h.c.S.B.B.c.q.h.).R.K.K.K.",
"K.K.K.K.Y.Q.).q.c.B.c.c.h.q.q.u.u.q.q.h.c.c.B.c.q.).Q.Y.K.D.K.K.K.K.K.K.Y.Q.).q.c.B.B.B.B.c.h.h.h.h.c.B.B.B.B.c.q.Q.Q.Y.K.K.K.K.",
"K.K.K.K.K.K.R.Q.q.c.c.c.c.c.B.B.B.B.B.c.c.c.h.q.Q.K.K.K.D.D.K.K.K.K.K.K.K.K.Q.Q.q.h.c.c.c.c.B.B.B.B.B.c.c.c.h.h.Q.Y.K.K.K.K.K.K.",
"K.K.K.K.K.K.K.K.~.Q.7.h.h.h.B.B.B.B.c.h.h.r.Q.~.K.K.K.K.K.K.K.K.K.K.K.K.K.K.K.K.Q.Q.u.h.c.c.c.B.B.B.c.h.h.u.).R.K.K.K.K.D.D.K.K.",
"K.K.K.K.K.K.K.K.D.Y.).).[.h.c.B.B.c.c.[.).).K.K.K.K.K.K.K.K.K.K.K.K.K.K.K.K.D.D.K.K.).).'.c.c.B.B.c.c.[.).).K.K.K.K.K.K.D.D.K.K."
};
